<svg xmlns="http://www.w3.org/2000/svg" xmlns:xlink="http://www.w3.org/1999/xlink" width="500" zoomAndPan="magnify" viewBox="0 0 375 374.999991" height="500" preserveAspectRatio="xMidYMid meet" version="1.2"><defs><clipPath id="0ffa1fe595"><path d="M 73.285156 224.613281 L 88.621094 224.613281 L 88.621094 240 L 73.285156 240 Z M 73.285156 224.613281 "/></clipPath><clipPath id="2f3ab72c9b"><path d="M 86.3125 234.699219 C 86.027344 235.421875 85.605469 236.058594 85.050781 236.597656 C 84.496094 237.136719 83.8125 237.558594 83.007812 237.859375 C 82.203125 238.160156 81.28125 238.308594 80.242188 238.308594 L 74.996094 238.308594 L 74.996094 226.28125 L 80.246094 226.28125 C 81.285156 226.28125 82.207031 226.433594 83.011719 226.742188 C 83.816406 227.050781 84.496094 227.472656 85.054688 228.015625 C 85.613281 228.558594 86.03125 229.191406 86.316406 229.914062 C 86.601562 230.636719 86.746094 231.433594 86.746094 232.296875 C 86.746094 233.175781 86.605469 233.976562 86.316406 234.699219 M 86.371094 226.839844 C 85.652344 226.144531 84.789062 225.597656 83.78125 225.203125 C 82.773438 224.808594 81.625 224.613281 80.355469 224.613281 L 73.285156 224.613281 L 73.285156 239.980469 L 80.355469 239.980469 C 81.628906 239.980469 82.769531 239.78125 83.78125 239.386719 C 84.792969 238.992188 85.65625 238.449219 86.371094 237.761719 C 87.085938 237.074219 87.628906 236.265625 88.003906 235.335938 C 88.378906 234.40625 88.5625 233.394531 88.5625 232.296875 C 88.5625 231.214844 88.375 230.207031 88.003906 229.277344 C 87.632812 228.347656 87.089844 227.535156 86.371094 226.839844 "/></clipPath><clipPath id="313f8f2c89"><path d="M 92.632812 224.578125 L 106.214844 224.578125 L 106.214844 240 L 92.632812 240 Z M 92.632812 224.578125 "/></clipPath><clipPath id="fa362ae57c"><path d="M 94.378906 226.28125 L 100.042969 226.28125 C 100.6875 226.28125 101.273438 226.414062 101.800781 226.675781 C 102.328125 226.9375 102.746094 227.296875 103.050781 227.75 C 103.355469 228.203125 103.511719 228.707031 103.511719 229.265625 C 103.511719 229.851562 103.363281 230.375 103.074219 230.835938 C 102.785156 231.296875 102.378906 231.664062 101.867188 231.933594 C 101.355469 232.203125 100.769531 232.339844 100.109375 232.339844 L 94.378906 232.339844 Z M 102.820312 233.382812 C 103.589844 232.964844 104.199219 232.402344 104.648438 231.691406 C 105.101562 230.980469 105.328125 230.164062 105.328125 229.242188 C 105.328125 228.363281 105.109375 227.578125 104.667969 226.882812 C 104.230469 226.1875 103.648438 225.636719 102.914062 225.226562 C 102.179688 224.816406 101.355469 224.613281 100.433594 224.613281 L 92.667969 224.613281 L 92.667969 239.976562 L 94.378906 239.976562 L 94.378906 234.007812 L 99.792969 234.007812 L 104.039062 239.976562 L 106.140625 239.976562 L 101.75 233.800781 C 102.125 233.699219 102.484375 233.5625 102.820312 233.378906 "/></clipPath><clipPath id="6d91da447c"><path d="M 109.054688 224.425781 L 126.78125 224.425781 L 126.78125 240.234375 L 109.054688 240.234375 Z M 109.054688 224.425781 "/></clipPath><clipPath id="7a34678e63"><path d="M 124.441406 234.785156 C 124.097656 235.539062 123.609375 236.195312 122.980469 236.75 C 122.351562 237.304688 121.605469 237.738281 120.742188 238.046875 C 119.878906 238.355469 118.933594 238.507812 117.910156 238.507812 C 116.886719 238.507812 115.941406 238.355469 115.078125 238.046875 C 114.214844 237.738281 113.472656 237.308594 112.847656 236.75 C 112.222656 236.191406 111.746094 235.539062 111.410156 234.785156 C 111.074219 234.03125 110.90625 233.214844 110.90625 232.335938 C 110.90625 231.441406 111.074219 230.621094 111.410156 229.867188 C 111.746094 229.113281 112.226562 228.457031 112.847656 227.902344 C 113.46875 227.347656 114.210938 226.910156 115.078125 226.597656 C 115.945312 226.285156 116.886719 226.125 117.910156 226.125 C 118.933594 226.125 119.878906 226.28125 120.742188 226.597656 C 121.605469 226.914062 122.351562 227.347656 122.980469 227.902344 C 123.609375 228.457031 124.097656 229.113281 124.441406 229.867188 C 124.785156 230.621094 124.957031 231.445312 124.957031 232.335938 C 124.957031 233.214844 124.785156 234.03125 124.441406 234.785156 M 124.234375 226.707031 C 123.445312 225.996094 122.515625 225.445312 121.445312 225.050781 C 120.375 224.65625 119.199219 224.457031 117.910156 224.457031 C 116.636719 224.457031 115.464844 224.65625 114.398438 225.050781 C 113.332031 225.445312 112.402344 226.003906 111.609375 226.71875 C 110.816406 227.433594 110.207031 228.273438 109.777344 229.230469 C 109.347656 230.1875 109.128906 231.226562 109.128906 232.335938 C 109.128906 233.445312 109.34375 234.484375 109.777344 235.441406 C 110.210938 236.398438 110.820312 237.234375 111.609375 237.945312 C 112.398438 238.65625 113.328125 239.207031 114.398438 239.601562 C 115.46875 239.996094 116.636719 240.195312 117.910156 240.195312 C 119.199219 240.195312 120.375 239.996094 121.445312 239.601562 C 122.515625 239.207031 123.441406 238.652344 124.234375 237.945312 C 125.027344 237.238281 125.640625 236.402344 126.078125 235.441406 C 126.515625 234.480469 126.738281 233.449219 126.738281 232.335938 C 126.738281 231.210938 126.519531 230.167969 126.078125 229.207031 C 125.636719 228.246094 125.023438 227.414062 124.234375 226.703125 "/></clipPath><clipPath id="5f7cb9f6fd"><path d="M 129.542969 224.5 L 146.964844 224.5 L 146.964844 240.234375 L 129.542969 240.234375 Z M 129.542969 224.5 "/></clipPath><clipPath id="fec504c2e3"><path d="M 146.867188 232.558594 L 138.679688 232.558594 L 138.679688 234.226562 L 145.085938 234.226562 L 145.089844 234.316406 C 145.105469 234.871094 144.949219 235.40625 144.628906 235.917969 C 144.308594 236.429688 143.851562 236.878906 143.269531 237.265625 C 142.6875 237.652344 141.996094 237.957031 141.207031 238.175781 C 140.417969 238.394531 139.582031 238.503906 138.703125 238.503906 C 137.691406 238.503906 136.753906 238.363281 135.882812 238.085938 C 135.011719 237.808594 134.238281 237.402344 133.566406 236.867188 C 132.894531 236.332031 132.371094 235.679688 131.996094 234.902344 C 131.621094 234.125 131.4375 233.261719 131.4375 232.3125 C 131.4375 231.433594 131.617188 230.617188 131.976562 229.863281 C 132.335938 229.109375 132.84375 228.457031 133.503906 227.910156 C 134.164062 227.363281 134.929688 226.933594 135.808594 226.625 C 136.6875 226.316406 137.632812 226.164062 138.640625 226.164062 C 139.34375 226.164062 140.042969 226.257812 140.738281 226.449219 L 142.691406 227.195312 C 143.296875 227.503906 143.835938 227.855469 144.304688 228.25 L 145.378906 227 C 144.984375 226.546875 144.4375 226.128906 143.742188 225.75 C 143.046875 225.371094 142.261719 225.066406 141.394531 224.839844 C 140.527344 224.613281 139.597656 224.5 138.617188 224.5 C 137.359375 224.5 136.179688 224.695312 135.082031 225.082031 C 133.984375 225.46875 133.027344 226.015625 132.21875 226.71875 C 131.410156 227.421875 130.769531 228.253906 130.308594 229.210938 C 129.847656 230.167969 129.617188 231.207031 129.617188 232.316406 C 129.617188 233.53125 129.847656 234.625 130.308594 235.597656 C 130.769531 236.570312 131.414062 237.394531 132.242188 238.066406 C 133.070312 238.738281 134.019531 239.261719 135.097656 239.636719 C 136.175781 240.011719 137.339844 240.195312 138.597656 240.195312 C 139.785156 240.195312 140.882812 240.039062 141.890625 239.722656 C 142.898438 239.40625 143.785156 238.964844 144.546875 238.394531 C 145.308594 237.824219 145.898438 237.132812 146.3125 236.320312 C 146.726562 235.507812 146.9375 234.617188 146.9375 233.652344 L 146.9375 233.355469 L 146.925781 233.117188 C 146.902344 232.824219 146.886719 232.6875 146.871094 232.554688 "/></clipPath><clipPath id="14030e02f0"><path d="M 150.8125 224.609375 L 162.339844 224.609375 L 162.339844 226.28125 L 150.8125 226.28125 Z M 150.8125 226.28125 L 152.527344 226.28125 L 152.527344 231.242188 L 150.8125 231.242188 Z M 150.8125 231.242188 L 161.109375 231.242188 L 161.109375 232.910156 L 150.8125 232.910156 Z M 150.8125 232.910156 L 152.527344 232.910156 L 152.527344 238.308594 L 150.8125 238.308594 Z M 150.8125 238.308594 L 162.292969 238.308594 L 162.292969 239.976562 L 150.8125 239.976562 Z M 150.8125 238.308594 "/></clipPath><clipPath id="e2a0e9ca52"><path d="M 167.035156 224.613281 L 180.515625 224.613281 L 180.515625 239.984375 L 167.035156 239.984375 Z M 167.035156 224.613281 "/></clipPath><clipPath id="8f4fc14bd0"><path d="M 168.746094 226.28125 L 174.410156 226.28125 C 175.054688 226.28125 175.640625 226.414062 176.167969 226.675781 C 176.695312 226.9375 177.113281 227.296875 177.417969 227.75 C 177.722656 228.203125 177.878906 228.707031 177.878906 229.265625 C 177.878906 229.851562 177.730469 230.375 177.441406 230.835938 C 177.152344 231.296875 176.746094 231.664062 176.234375 231.933594 C 175.722656 232.203125 175.136719 232.339844 174.476562 232.339844 L 168.746094 232.339844 Z M 177.1875 233.382812 C 177.957031 232.964844 178.566406 232.402344 179.019531 231.691406 C 179.472656 230.980469 179.699219 230.164062 179.699219 229.242188 C 179.699219 228.363281 179.480469 227.578125 179.039062 226.882812 C 178.597656 226.1875 178.015625 225.636719 177.28125 225.226562 C 176.546875 224.816406 175.730469 224.613281 174.804688 224.613281 L 167.035156 224.613281 L 167.035156 239.980469 L 168.746094 239.980469 L 168.746094 234.007812 L 174.160156 234.007812 L 178.40625 239.980469 L 180.511719 239.980469 L 176.117188 233.804688 C 176.492188 233.703125 176.851562 233.566406 177.1875 233.382812 "/></clipPath><clipPath id="98e05f9925"><path d="M 184.554688 224.613281 L 193.441406 224.613281 L 193.441406 226.304688 L 184.554688 226.304688 Z M 188.132812 226.304688 L 189.839844 226.304688 L 189.839844 238.285156 L 188.132812 238.285156 Z M 184.554688 238.285156 L 193.441406 238.285156 L 193.441406 239.976562 L 184.554688 239.976562 Z M 184.554688 238.285156 "/></clipPath><clipPath id="fd32c09ea4"><path d="M 198.625 224.613281 L 210.152344 224.613281 L 210.152344 226.28125 L 198.625 226.28125 Z M 198.625 226.28125 L 200.335938 226.28125 L 200.335938 231.242188 L 198.625 231.242188 Z M 198.625 231.242188 L 208.921875 231.242188 L 208.921875 232.910156 L 198.625 232.910156 Z M 198.625 232.910156 L 200.335938 232.910156 L 200.335938 238.308594 L 198.625 238.308594 Z M 198.625 238.308594 L 210.105469 238.308594 L 210.105469 239.976562 L 198.625 239.976562 Z M 198.625 238.308594 "/></clipPath><clipPath id="8278736676"><path d="M 6.566406 135 L 74 135 L 74 199.988281 L 6.566406 199.988281 Z M 6.566406 135 "/></clipPath><clipPath id="eaddbb9839"><path d="M 57.34375 173.683594 C 56.539062 175.664062 55.363281 177.421875 53.820312 178.96875 C 52.277344 180.515625 50.3125 181.75 47.933594 182.675781 C 45.554688 183.601562 42.753906 184.066406 39.542969 184.066406 L 24.992188 184.066406 L 24.992188 150.878906 L 39.546875 150.878906 C 42.757812 150.878906 45.558594 151.34375 47.9375 152.269531 C 50.316406 153.195312 52.277344 154.433594 53.824219 155.976562 C 55.371094 157.519531 56.542969 159.285156 57.347656 161.257812 C 58.152344 163.234375 58.554688 165.304688 58.554688 167.46875 C 58.554688 169.632812 58.152344 171.703125 57.347656 173.679688 M 73.855469 152.949219 C 72.214844 149.863281 70.089844 147.085938 67.453125 144.621094 C 64.238281 141.625 60.316406 139.277344 55.679688 137.574219 C 51.042969 135.871094 45.816406 135.027344 40.007812 135.027344 L 6.636719 135.027344 L 6.636719 199.917969 L 40.007812 199.917969 C 45.816406 199.917969 51.023438 199.070312 55.628906 197.371094 C 60.234375 195.671875 64.160156 193.335938 67.402344 190.371094 C 70.066406 187.933594 72.210938 185.167969 73.851562 182.085938 Z M 73.855469 152.949219 "/></clipPath><clipPath id="ea35f70322"><path d="M 169.6875 135 L 230.417969 135 L 230.417969 199.988281 L 169.6875 199.988281 Z M 169.6875 135 "/></clipPath><clipPath id="3a40782730"><path d="M 183.035156 135.027344 L 169.699219 150.878906 L 189.921875 150.878906 L 189.921875 199.917969 L 208.273438 199.917969 L 208.273438 150.878906 L 230.257812 150.878906 L 230.257812 135.027344 Z M 183.035156 135.027344 "/></clipPath><clipPath id="7a57a4e161"><path d="M 73.75 135 L 183.121094 135 L 183.121094 199.988281 L 73.75 199.988281 Z M 73.75 135 "/></clipPath><clipPath id="3f0c32a12e"><path d="M 117.757812 186.992188 L 91.574219 186.992188 L 91.574219 174.207031 L 106.890625 174.207031 L 106.890625 160.738281 L 91.574219 160.738281 L 91.574219 147.953125 L 117.757812 147.953125 L 134.175781 167.476562 Z M 155.75 167.46875 L 155.746094 167.464844 L 183.035156 135.027344 L 161.460938 135.027344 L 144.960938 154.644531 L 128.460938 135.027344 L 73.855469 135.027344 L 73.855469 199.917969 L 128.460938 199.917969 L 144.964844 180.300781 L 161.464844 199.917969 L 183.039062 199.917969 L 155.746094 167.476562 Z M 155.75 167.46875 "/></clipPath><clipPath id="632e4885fc"><path d="M 222.441406 224.613281 L 233.96875 224.613281 L 233.96875 226.28125 L 222.441406 226.28125 Z M 222.441406 226.28125 L 224.152344 226.28125 L 224.152344 231.242188 L 222.441406 231.242188 Z M 222.441406 231.242188 L 232.738281 231.242188 L 232.738281 232.910156 L 222.441406 232.910156 Z M 222.441406 232.910156 L 224.152344 232.910156 L 224.152344 238.308594 L 222.441406 238.308594 Z M 222.441406 238.308594 L 233.921875 238.308594 L 233.921875 239.976562 L 222.441406 239.976562 Z M 222.441406 238.308594 "/></clipPath><clipPath id="380b96e528"><path d="M 236.671875 224.542969 L 252.179688 224.542969 L 252.179688 240 L 236.671875 240 Z M 236.671875 224.542969 "/></clipPath><clipPath id="14436ef713"><path d="M 251.941406 224.613281 L 249.769531 224.613281 L 244.570312 231.078125 L 239.078125 224.613281 L 236.839844 224.613281 L 243.210938 232.074219 L 236.707031 239.976562 L 238.835938 239.976562 L 244.261719 233.308594 L 249.902344 239.976562 L 252.164062 239.976562 L 245.558594 232.238281 Z M 251.941406 224.613281 "/></clipPath><clipPath id="37055fcb2e"><path d="M 253.65625 224.613281 L 266.542969 224.613281 L 266.542969 226.28125 L 253.65625 226.28125 Z M 259.144531 226.28125 L 260.855469 226.28125 L 260.855469 239.976562 L 259.144531 239.976562 Z M 259.144531 226.28125 "/></clipPath><clipPath id="1acd432983"><path d="M 269.945312 224.542969 L 283.496094 224.542969 L 283.496094 240 L 269.945312 240 Z M 269.945312 224.542969 "/></clipPath><clipPath id="459b2a0721"><path d="M 271.679688 226.28125 L 277.34375 226.28125 C 277.988281 226.28125 278.574219 226.414062 279.097656 226.675781 C 279.625 226.9375 280.042969 227.296875 280.347656 227.75 C 280.652344 228.203125 280.808594 228.707031 280.808594 229.265625 C 280.808594 229.851562 280.660156 230.375 280.371094 230.835938 C 280.082031 231.296875 279.675781 231.664062 279.164062 231.933594 C 278.65625 232.203125 278.070312 232.339844 277.410156 232.339844 L 271.679688 232.339844 Z M 280.117188 233.382812 C 280.886719 232.964844 281.496094 232.402344 281.949219 231.691406 C 282.402344 230.980469 282.628906 230.164062 282.628906 229.242188 C 282.628906 228.363281 282.410156 227.578125 281.96875 226.882812 C 281.527344 226.1875 280.945312 225.636719 280.210938 225.226562 C 279.476562 224.816406 278.660156 224.613281 277.738281 224.613281 L 269.964844 224.613281 L 269.964844 239.976562 L 271.675781 239.976562 L 271.675781 234.007812 L 277.089844 234.007812 L 281.332031 239.976562 L 283.441406 239.976562 L 279.046875 233.804688 C 279.421875 233.703125 279.78125 233.566406 280.117188 233.382812 "/></clipPath><clipPath id="1a8ac7203b"><path d="M 285.679688 224.542969 L 301.867188 224.542969 L 301.867188 240 L 285.679688 240 Z M 285.679688 224.542969 "/></clipPath><clipPath id="5a44c2b3ec"><path d="M 290.132812 234.230469 L 292.441406 229.179688 C 292.632812 228.769531 292.789062 228.421875 292.914062 228.136719 L 293.265625 227.335938 C 293.375 227.085938 293.488281 226.816406 293.605469 226.523438 L 293.691406 226.296875 L 293.800781 226.355469 C 293.941406 226.714844 294.050781 226.980469 294.164062 227.226562 L 294.527344 228.039062 C 294.660156 228.332031 294.796875 228.675781 294.945312 229.070312 L 297.300781 234.230469 Z M 299.925781 239.980469 L 301.835938 239.980469 L 294.855469 224.613281 L 292.726562 224.613281 L 285.703125 239.976562 L 287.503906 239.976562 L 289.371094 235.898438 L 298.0625 235.898438 Z M 299.925781 239.980469 "/></clipPath><clipPath id="2759ea4b4a"><path d="M 235.746094 135.003906 L 368.394531 135.003906 L 368.394531 199.984375 L 235.746094 199.984375 Z M 235.746094 135.003906 "/></clipPath><clipPath id="680d8ff3ed"><path d="M 320.441406 176.832031 L 325.628906 165.804688 C 326.308594 164.320312 326.925781 162.945312 327.484375 161.679688 L 329.058594 157.972656 C 329.3125 157.355469 329.550781 156.738281 329.777344 156.113281 L 330.355469 157.785156 C 330.785156 158.988281 331.28125 160.242188 331.839844 161.539062 C 332.398438 162.835938 333.011719 164.257812 333.691406 165.804688 L 338.910156 176.832031 Z M 277.058594 161.449219 C 276.316406 162.625 275.28125 163.519531 273.957031 164.136719 C 272.628906 164.753906 271.160156 165.066406 269.554688 165.066406 L 253.050781 165.066406 L 253.050781 149.765625 L 269.183594 149.765625 C 270.851562 149.765625 272.382812 150.042969 273.773438 150.601562 C 275.160156 151.160156 276.242188 151.992188 277.015625 153.105469 C 277.789062 154.21875 278.175781 155.578125 278.175781 157.183594 C 278.175781 158.851562 277.804688 160.273438 277.0625 161.449219 M 337.957031 135.027344 L 322.011719 135.027344 L 294.839844 192.671875 L 283.070312 176.019531 C 283.546875 175.8125 284.015625 175.585938 284.476562 175.347656 C 288.183594 173.433594 291.105469 170.804688 293.238281 167.46875 C 295.371094 164.128906 296.4375 160.300781 296.4375 155.972656 C 296.4375 151.644531 295.449219 147.9375 293.46875 144.847656 C 291.488281 141.757812 288.648438 139.347656 284.941406 137.617188 C 281.234375 135.886719 276.660156 135.023438 271.222656 135.023438 L 235.808594 135.023438 L 235.808594 199.917969 L 253.050781 199.917969 L 253.050781 178.222656 L 263.839844 178.222656 L 279.007812 199.917969 L 309.59375 199.917969 L 314.34375 189.8125 L 345.046875 189.8125 L 349.824219 199.917969 L 368.363281 199.917969 Z M 337.957031 135.027344 "/></clipPath><clipPath id="e51dc75e7a"><path d="M 353.566406 134.734375 L 365 134.734375 L 365 145.789062 L 353.566406 145.789062 Z M 353.566406 134.734375 "/></clipPath><clipPath id="f47956ac70"><path d="M 363.34375 142.546875 C 362.917969 143.226562 362.359375 143.769531 361.667969 144.175781 C 360.976562 144.582031 360.214844 144.78125 359.378906 144.78125 C 358.523438 144.78125 357.746094 144.578125 357.050781 144.175781 C 356.355469 143.773438 355.796875 143.226562 355.375 142.535156 C 354.953125 141.84375 354.746094 141.089844 354.746094 140.265625 C 354.746094 139.425781 354.960938 138.667969 355.386719 137.984375 C 355.8125 137.300781 356.375 136.761719 357.074219 136.355469 C 357.773438 135.949219 358.539062 135.75 359.378906 135.75 C 360.214844 135.75 360.976562 135.953125 361.667969 136.355469 C 362.359375 136.757812 362.914062 137.300781 363.34375 137.984375 C 363.773438 138.667969 363.984375 139.425781 363.984375 140.265625 C 363.984375 141.105469 363.769531 141.867188 363.34375 142.546875 M 364.496094 138.140625 C 364.203125 137.484375 363.800781 136.90625 363.285156 136.40625 C 362.769531 135.90625 362.179688 135.515625 361.515625 135.230469 C 360.851562 134.945312 360.136719 134.800781 359.378906 134.800781 C 358.617188 134.800781 357.898438 134.941406 357.21875 135.21875 C 356.539062 135.496094 355.949219 135.890625 355.449219 136.40625 C 354.949219 136.921875 354.550781 137.503906 354.25 138.152344 C 353.949219 138.800781 353.796875 139.507812 353.796875 140.265625 C 353.796875 141.261719 354.046875 142.179688 354.546875 143.007812 C 355.046875 143.835938 355.722656 144.5 356.578125 144.992188 C 357.433594 145.484375 358.367188 145.730469 359.382812 145.730469 C 360.125 145.730469 360.828125 145.59375 361.492188 145.316406 C 362.15625 145.039062 362.75 144.648438 363.273438 144.140625 C 363.796875 143.632812 364.203125 143.050781 364.496094 142.394531 C 364.789062 141.738281 364.933594 141.027344 364.933594 140.269531 C 364.933594 139.511719 364.785156 138.800781 364.496094 138.144531 "/></clipPath><clipPath id="49fe5d26d6"><path d="M 357.339844 137.164062 L 361.921875 137.164062 L 361.921875 143.09375 L 357.339844 143.09375 Z M 357.339844 137.164062 "/></clipPath><clipPath id="e0ceecb095"><path d="M 359.472656 140.074219 L 358.378906 140.074219 L 358.378906 138.101562 L 359.519531 138.101562 C 359.894531 138.101562 360.203125 138.1875 360.441406 138.363281 C 360.679688 138.539062 360.796875 138.785156 360.796875 139.101562 C 360.796875 139.386719 360.671875 139.621094 360.429688 139.800781 C 360.1875 139.980469 359.863281 140.074219 359.472656 140.074219 M 361.097656 140.417969 C 361.5 140.078125 361.703125 139.628906 361.703125 139.074219 C 361.703125 138.535156 361.515625 138.097656 361.144531 137.753906 C 360.773438 137.410156 360.292969 137.242188 359.710938 137.242188 L 357.453125 137.242188 L 357.453125 143.042969 L 358.378906 143.042969 L 358.378906 140.929688 L 359.679688 140.929688 C 359.726562 140.929688 359.769531 140.925781 359.808594 140.925781 L 360.890625 143.046875 L 361.886719 143.046875 L 360.6875 140.691406 C 360.828125 140.617188 360.960938 140.53125 361.089844 140.421875 "/></clipPath></defs><g id="3fadca5c1e"><g clip-rule="nonzero" clip-path="url(#0ffa1fe595)"><g clip-rule="nonzero" clip-path="url(#2f3ab72c9b)"><path style=" stroke:none;fill-rule:nonzero;fill:#e40520;fill-opacity:1;" d="M 73.285156 224.613281 L 88.5625 224.613281 L 88.5625 239.949219 L 73.285156 239.949219 Z M 73.285156 224.613281 "/></g></g><g clip-rule="nonzero" clip-path="url(#313f8f2c89)"><g clip-rule="nonzero" clip-path="url(#fa362ae57c)"><path style=" stroke:none;fill-rule:nonzero;fill:#e40520;fill-opacity:1;" d="M 90.714844 222.503906 L 164.308594 222.503906 L 164.308594 242.152344 L 90.714844 242.152344 Z M 90.714844 222.503906 "/></g></g><g clip-rule="nonzero" clip-path="url(#6d91da447c)"><g clip-rule="nonzero" clip-path="url(#7a34678e63)"><path style=" stroke:none;fill-rule:nonzero;fill:#e40520;fill-opacity:1;" d="M 90.714844 222.503906 L 164.308594 222.503906 L 164.308594 242.152344 L 90.714844 242.152344 Z M 90.714844 222.503906 "/></g></g><g clip-rule="nonzero" clip-path="url(#5f7cb9f6fd)"><g clip-rule="nonzero" clip-path="url(#fec504c2e3)"><path style=" stroke:none;fill-rule:nonzero;fill:#e40520;fill-opacity:1;" d="M 90.714844 222.503906 L 164.308594 222.503906 L 164.308594 242.152344 L 90.714844 242.152344 Z M 90.714844 222.503906 "/></g></g><g clip-rule="nonzero" clip-path="url(#14030e02f0)"><path style=" stroke:none;fill-rule:nonzero;fill:#e40520;fill-opacity:1;" d="M 90.714844 222.503906 L 164.308594 222.503906 L 164.308594 242.152344 L 90.714844 242.152344 Z M 90.714844 222.503906 "/></g><g clip-rule="nonzero" clip-path="url(#e2a0e9ca52)"><g clip-rule="nonzero" clip-path="url(#8f4fc14bd0)"><path style=" stroke:none;fill-rule:nonzero;fill:#e40520;fill-opacity:1;" d="M 167.035156 224.613281 L 180.515625 224.613281 L 180.515625 239.984375 L 167.035156 239.984375 Z M 167.035156 224.613281 "/></g></g><g clip-rule="nonzero" clip-path="url(#98e05f9925)"><path style=" stroke:none;fill-rule:nonzero;fill:#e40520;fill-opacity:1;" d="M 184.554688 224.613281 L 193.445312 224.613281 L 193.445312 239.960938 L 184.554688 239.960938 Z M 184.554688 224.613281 "/></g><g clip-rule="nonzero" clip-path="url(#fd32c09ea4)"><path style=" stroke:none;fill-rule:nonzero;fill:#e40520;fill-opacity:1;" d="M 198.625 224.613281 L 210.148438 224.613281 L 210.148438 239.964844 L 198.625 239.964844 Z M 198.625 224.613281 "/></g><g clip-rule="nonzero" clip-path="url(#8278736676)"><g clip-rule="nonzero" clip-path="url(#eaddbb9839)"><path style=" stroke:none;fill-rule:nonzero;fill:#1d327b;fill-opacity:1;" d="M 4.683594 133.074219 L 232.300781 133.074219 L 232.300781 201.871094 L 4.683594 201.871094 Z M 4.683594 133.074219 "/></g></g><g clip-rule="nonzero" clip-path="url(#ea35f70322)"><g clip-rule="nonzero" clip-path="url(#3a40782730)"><path style=" stroke:none;fill-rule:nonzero;fill:#1d327b;fill-opacity:1;" d="M 4.683594 133.074219 L 232.300781 133.074219 L 232.300781 201.871094 L 4.683594 201.871094 Z M 4.683594 133.074219 "/></g></g><g clip-rule="nonzero" clip-path="url(#7a57a4e161)"><g clip-rule="nonzero" clip-path="url(#3f0c32a12e)"><path style=" stroke:none;fill-rule:nonzero;fill:#e40520;fill-opacity:1;" d="M 4.683594 133.074219 L 232.300781 133.074219 L 232.300781 201.871094 L 4.683594 201.871094 Z M 4.683594 133.074219 "/></g></g><g clip-rule="nonzero" clip-path="url(#632e4885fc)"><path style=" stroke:none;fill-rule:nonzero;fill:#e40520;fill-opacity:1;" d="M 220.488281 222.660156 L 303.824219 222.660156 L 303.824219 241.929688 L 220.488281 241.929688 Z M 220.488281 222.660156 "/></g><g clip-rule="nonzero" clip-path="url(#380b96e528)"><g clip-rule="nonzero" clip-path="url(#14436ef713)"><path style=" stroke:none;fill-rule:nonzero;fill:#e40520;fill-opacity:1;" d="M 220.488281 222.660156 L 303.824219 222.660156 L 303.824219 241.929688 L 220.488281 241.929688 Z M 220.488281 222.660156 "/></g></g><g clip-rule="nonzero" clip-path="url(#37055fcb2e)"><path style=" stroke:none;fill-rule:nonzero;fill:#e40520;fill-opacity:1;" d="M 220.488281 222.660156 L 303.824219 222.660156 L 303.824219 241.929688 L 220.488281 241.929688 Z M 220.488281 222.660156 "/></g><g clip-rule="nonzero" clip-path="url(#1acd432983)"><g clip-rule="nonzero" clip-path="url(#459b2a0721)"><path style=" stroke:none;fill-rule:nonzero;fill:#e40520;fill-opacity:1;" d="M 220.488281 222.660156 L 303.824219 222.660156 L 303.824219 241.929688 L 220.488281 241.929688 Z M 220.488281 222.660156 "/></g></g><g clip-rule="nonzero" clip-path="url(#1a8ac7203b)"><g clip-rule="nonzero" clip-path="url(#5a44c2b3ec)"><path style=" stroke:none;fill-rule:nonzero;fill:#e40520;fill-opacity:1;" d="M 220.488281 222.660156 L 303.824219 222.660156 L 303.824219 241.929688 L 220.488281 241.929688 Z M 220.488281 222.660156 "/></g></g><g clip-rule="nonzero" clip-path="url(#2759ea4b4a)"><g clip-rule="nonzero" clip-path="url(#680d8ff3ed)"><path style=" stroke:none;fill-rule:nonzero;fill:#1d327b;fill-opacity:1;" d="M 233.855469 132.847656 L 370.28125 132.847656 L 370.28125 201.871094 L 233.855469 201.871094 Z M 233.855469 132.847656 "/></g></g><g clip-rule="nonzero" clip-path="url(#e51dc75e7a)"><g clip-rule="nonzero" clip-path="url(#f47956ac70)"><path style=" stroke:none;fill-rule:nonzero;fill:#1d327b;fill-opacity:1;" d="M 233.855469 132.847656 L 370.28125 132.847656 L 370.28125 201.871094 L 233.855469 201.871094 Z M 233.855469 132.847656 "/></g></g><g clip-rule="nonzero" clip-path="url(#49fe5d26d6)"><g clip-rule="nonzero" clip-path="url(#e0ceecb095)"><path style=" stroke:none;fill-rule:nonzero;fill:#1d327b;fill-opacity:1;" d="M 233.855469 132.847656 L 370.28125 132.847656 L 370.28125 201.871094 L 233.855469 201.871094 Z M 233.855469 132.847656 "/></g></g></g></svg>