<svg xmlns="http://www.w3.org/2000/svg" xmlns:xlink="http://www.w3.org/1999/xlink" width="500" zoomAndPan="magnify" viewBox="0 0 375 374.999991" height="500" preserveAspectRatio="xMidYMid meet" version="1.2"><defs><clipPath id="afd9dbd9fd"><path d="M 72.617188 224.828125 L 88 224.828125 L 88 240.316406 L 72.617188 240.316406 Z M 72.617188 224.828125 "/></clipPath><clipPath id="9686b31845"><path d="M 85.71875 234.972656 C 85.433594 235.699219 85.007812 236.339844 84.449219 236.882812 C 83.894531 237.425781 83.207031 237.847656 82.394531 238.152344 C 81.585938 238.453125 80.660156 238.605469 79.613281 238.605469 L 74.339844 238.605469 L 74.339844 226.507812 L 79.617188 226.507812 C 80.664062 226.507812 81.589844 226.660156 82.398438 226.96875 C 83.210938 227.28125 83.894531 227.707031 84.453125 228.25 C 85.015625 228.796875 85.4375 229.433594 85.722656 230.160156 C 86.011719 230.886719 86.15625 231.6875 86.15625 232.558594 C 86.15625 233.441406 86.015625 234.246094 85.722656 234.972656 M 85.777344 227.070312 C 85.054688 226.371094 84.1875 225.820312 83.175781 225.421875 C 82.160156 225.027344 81.003906 224.828125 79.730469 224.828125 L 72.617188 224.828125 L 72.617188 240.285156 L 79.730469 240.285156 C 81.007812 240.285156 82.15625 240.085938 83.175781 239.6875 C 84.191406 239.292969 85.058594 238.746094 85.777344 238.054688 C 86.496094 237.363281 87.046875 236.550781 87.425781 235.613281 C 87.800781 234.679688 87.988281 233.660156 87.988281 232.558594 C 87.988281 231.46875 87.796875 230.457031 87.425781 229.519531 C 87.050781 228.585938 86.5 227.769531 85.777344 227.070312 "/></clipPath><clipPath id="187a6436f6"><path d="M 92.078125 224.792969 L 105.742188 224.792969 L 105.742188 240.308594 L 92.078125 240.308594 Z M 92.078125 224.792969 "/></clipPath><clipPath id="61bb9b4ce5"><path d="M 93.835938 226.507812 L 99.53125 226.507812 C 100.179688 226.507812 100.769531 226.644531 101.296875 226.90625 C 101.828125 227.167969 102.25 227.53125 102.554688 227.984375 C 102.863281 228.441406 103.019531 228.949219 103.019531 229.511719 C 103.019531 230.101562 102.871094 230.625 102.578125 231.089844 C 102.289062 231.554688 101.878906 231.921875 101.367188 232.195312 C 100.851562 232.464844 100.261719 232.601562 99.597656 232.601562 L 93.835938 232.601562 Z M 102.324219 233.652344 C 103.097656 233.230469 103.710938 232.664062 104.167969 231.949219 C 104.621094 231.234375 104.851562 230.414062 104.851562 229.488281 C 104.851562 228.601562 104.628906 227.8125 104.1875 227.113281 C 103.742188 226.414062 103.15625 225.859375 102.417969 225.449219 C 101.679688 225.035156 100.851562 224.832031 99.921875 224.832031 L 92.113281 224.832031 L 92.113281 240.28125 L 93.835938 240.28125 L 93.835938 234.28125 L 99.28125 234.28125 L 103.550781 240.28125 L 105.667969 240.28125 L 101.246094 234.070312 C 101.625 233.96875 101.984375 233.832031 102.324219 233.648438 "/></clipPath><clipPath id="a69d99df18"><path d="M 108.597656 224.640625 L 126.425781 224.640625 L 126.425781 240.539062 L 108.597656 240.539062 Z M 108.597656 224.640625 "/></clipPath><clipPath id="5ea82ace58"><path d="M 124.074219 235.0625 C 123.726562 235.820312 123.238281 236.480469 122.605469 237.039062 C 121.972656 237.597656 121.222656 238.03125 120.351562 238.34375 C 119.484375 238.652344 118.535156 238.804688 117.503906 238.804688 C 116.476562 238.804688 115.523438 238.652344 114.65625 238.34375 C 113.789062 238.03125 113.042969 237.601562 112.414062 237.039062 C 111.785156 236.476562 111.304688 235.820312 110.96875 235.0625 C 110.628906 234.304688 110.460938 233.484375 110.460938 232.597656 C 110.460938 231.699219 110.628906 230.875 110.96875 230.117188 C 111.304688 229.355469 111.789062 228.699219 112.414062 228.140625 C 113.039062 227.582031 113.785156 227.140625 114.65625 226.828125 C 115.527344 226.511719 116.476562 226.351562 117.503906 226.351562 C 118.535156 226.351562 119.484375 226.507812 120.351562 226.828125 C 121.222656 227.144531 121.972656 227.582031 122.605469 228.140625 C 123.238281 228.699219 123.726562 229.355469 124.074219 230.117188 C 124.417969 230.875 124.59375 231.703125 124.59375 232.597656 C 124.59375 233.484375 124.417969 234.304688 124.074219 235.0625 M 123.863281 226.9375 C 123.070312 226.222656 122.136719 225.667969 121.058594 225.269531 C 119.984375 224.875 118.800781 224.675781 117.503906 224.675781 C 116.222656 224.675781 115.046875 224.875 113.972656 225.269531 C 112.898438 225.667969 111.964844 226.230469 111.167969 226.949219 C 110.371094 227.667969 109.757812 228.511719 109.324219 229.476562 C 108.894531 230.4375 108.671875 231.484375 108.671875 232.597656 C 108.671875 233.714844 108.890625 234.757812 109.324219 235.722656 C 109.761719 236.683594 110.375 237.523438 111.167969 238.238281 C 111.960938 238.957031 112.894531 239.507812 113.972656 239.90625 C 115.050781 240.300781 116.222656 240.503906 117.503906 240.503906 C 118.800781 240.503906 119.984375 240.300781 121.058594 239.90625 C 122.136719 239.507812 123.066406 238.953125 123.863281 238.238281 C 124.664062 237.527344 125.28125 236.6875 125.71875 235.722656 C 126.160156 234.753906 126.382812 233.71875 126.382812 232.597656 C 126.382812 231.46875 126.164062 230.417969 125.71875 229.453125 C 125.277344 228.484375 124.660156 227.648438 123.863281 226.933594 "/></clipPath><clipPath id="d105292153"><path d="M 129.207031 224.71875 L 146.726562 224.71875 L 146.726562 240.539062 L 129.207031 240.539062 Z M 129.207031 224.71875 "/></clipPath><clipPath id="0d3674d089"><path d="M 146.628906 232.824219 L 138.394531 232.824219 L 138.394531 234.5 L 144.835938 234.5 L 144.839844 234.589844 C 144.855469 235.148438 144.699219 235.6875 144.375 236.199219 C 144.054688 236.714844 143.59375 237.167969 143.007812 237.554688 C 142.425781 237.945312 141.730469 238.25 140.933594 238.472656 C 140.140625 238.691406 139.300781 238.800781 138.417969 238.800781 C 137.398438 238.800781 136.457031 238.660156 135.582031 238.382812 C 134.703125 238.101562 133.925781 237.695312 133.25 237.15625 C 132.574219 236.617188 132.046875 235.960938 131.671875 235.179688 C 131.292969 234.398438 131.109375 233.53125 131.109375 232.574219 C 131.109375 231.691406 131.289062 230.871094 131.652344 230.113281 C 132.011719 229.351562 132.523438 228.699219 133.1875 228.148438 C 133.851562 227.597656 134.621094 227.164062 135.503906 226.855469 C 136.390625 226.542969 137.339844 226.390625 138.355469 226.390625 C 139.0625 226.390625 139.765625 226.484375 140.464844 226.679688 L 142.429688 227.429688 C 143.039062 227.738281 143.578125 228.09375 144.050781 228.488281 L 145.132812 227.230469 C 144.734375 226.777344 144.183594 226.355469 143.484375 225.976562 C 142.785156 225.59375 141.996094 225.289062 141.125 225.058594 C 140.25 224.832031 139.316406 224.71875 138.332031 224.71875 C 137.066406 224.71875 135.878906 224.914062 134.773438 225.304688 C 133.671875 225.691406 132.707031 226.242188 131.894531 226.949219 C 131.082031 227.65625 130.4375 228.492188 129.972656 229.457031 C 129.511719 230.417969 129.277344 231.464844 129.277344 232.578125 C 129.277344 233.800781 129.511719 234.902344 129.972656 235.878906 C 130.4375 236.855469 131.085938 237.6875 131.917969 238.363281 C 132.75 239.039062 133.707031 239.5625 134.789062 239.941406 C 135.875 240.320312 137.046875 240.503906 138.3125 240.503906 C 139.503906 240.503906 140.609375 240.347656 141.621094 240.027344 C 142.636719 239.710938 143.527344 239.265625 144.292969 238.691406 C 145.058594 238.117188 145.652344 237.421875 146.070312 236.605469 C 146.488281 235.789062 146.699219 234.894531 146.699219 233.921875 L 146.699219 233.625 L 146.691406 233.382812 C 146.664062 233.089844 146.648438 232.953125 146.632812 232.820312 "/></clipPath><clipPath id="4f43a79534"><path d="M 150.601562 224.828125 L 162.195312 224.828125 L 162.195312 226.507812 L 150.601562 226.507812 Z M 150.601562 226.507812 L 152.324219 226.507812 L 152.324219 231.5 L 150.601562 231.5 Z M 150.601562 231.5 L 160.957031 231.5 L 160.957031 233.175781 L 150.601562 233.175781 Z M 150.601562 233.175781 L 152.324219 233.175781 L 152.324219 238.605469 L 150.601562 238.605469 Z M 150.601562 238.605469 L 162.144531 238.605469 L 162.144531 240.28125 L 150.601562 240.28125 Z M 150.601562 238.605469 "/></clipPath><clipPath id="8c165ca7a5"><path d="M 166.917969 224.828125 L 180.472656 224.828125 L 180.472656 240.292969 L 166.917969 240.292969 Z M 166.917969 224.828125 "/></clipPath><clipPath id="d4f2925ed5"><path d="M 168.636719 226.507812 L 174.335938 226.507812 C 174.984375 226.507812 175.570312 226.640625 176.101562 226.902344 C 176.632812 227.167969 177.054688 227.527344 177.359375 227.984375 C 177.664062 228.441406 177.824219 228.945312 177.824219 229.507812 C 177.824219 230.097656 177.671875 230.625 177.382812 231.089844 C 177.09375 231.550781 176.683594 231.921875 176.167969 232.191406 C 175.65625 232.464844 175.066406 232.601562 174.402344 232.601562 L 168.636719 232.601562 Z M 177.128906 233.648438 C 177.902344 233.230469 178.515625 232.664062 178.96875 231.949219 C 179.425781 231.234375 179.652344 230.414062 179.652344 229.484375 C 179.652344 228.601562 179.433594 227.8125 178.988281 227.113281 C 178.546875 226.414062 177.960938 225.859375 177.222656 225.445312 C 176.484375 225.035156 175.664062 224.828125 174.730469 224.828125 L 166.917969 224.828125 L 166.917969 240.285156 L 168.636719 240.285156 L 168.636719 234.277344 L 174.082031 234.277344 L 178.351562 240.285156 L 180.472656 240.285156 L 176.050781 234.074219 C 176.429688 233.972656 176.789062 233.835938 177.128906 233.648438 "/></clipPath><clipPath id="495942fc37"><path d="M 184.535156 224.828125 L 193.476562 224.828125 L 193.476562 226.53125 L 184.535156 226.53125 Z M 188.132812 226.53125 L 189.855469 226.53125 L 189.855469 238.582031 L 188.132812 238.582031 Z M 184.535156 238.582031 L 193.476562 238.582031 L 193.476562 240.285156 L 184.535156 240.285156 Z M 184.535156 238.582031 "/></clipPath><clipPath id="52bf0f7673"><path d="M 198.6875 224.828125 L 210.28125 224.828125 L 210.28125 226.507812 L 198.6875 226.507812 Z M 198.6875 226.507812 L 200.410156 226.507812 L 200.410156 231.496094 L 198.6875 231.496094 Z M 198.6875 231.496094 L 209.046875 231.496094 L 209.046875 233.171875 L 198.6875 233.171875 Z M 198.6875 233.171875 L 200.410156 233.171875 L 200.410156 238.605469 L 198.6875 238.605469 Z M 198.6875 238.605469 L 210.234375 238.605469 L 210.234375 240.285156 L 198.6875 240.285156 Z M 198.6875 238.605469 "/></clipPath><clipPath id="40e1b3a5ba"><path d="M 5.507812 134.648438 L 73.355469 134.648438 L 73.355469 200 L 5.507812 200 Z M 5.507812 134.648438 "/></clipPath><clipPath id="423e909762"><path d="M 56.582031 173.605469 C 55.773438 175.59375 54.589844 177.363281 53.039062 178.917969 C 51.488281 180.476562 49.511719 181.714844 47.117188 182.648438 C 44.726562 183.578125 41.910156 184.046875 38.679688 184.046875 L 24.042969 184.046875 L 24.042969 150.664062 L 38.683594 150.664062 C 41.914062 150.664062 44.730469 151.132812 47.121094 152.0625 C 49.515625 152.992188 51.488281 154.238281 53.042969 155.789062 C 54.597656 157.34375 55.777344 159.117188 56.585938 161.105469 C 57.394531 163.09375 57.800781 165.175781 57.800781 167.351562 C 57.800781 169.53125 57.394531 171.613281 56.585938 173.601562 M 73.195312 152.746094 C 71.542969 149.640625 69.402344 146.847656 66.75 144.371094 C 63.515625 141.355469 59.574219 138.996094 54.910156 137.28125 C 50.246094 135.570312 44.988281 134.722656 39.148438 134.722656 L 5.582031 134.722656 L 5.582031 199.988281 L 39.148438 199.988281 C 44.988281 199.988281 50.226562 199.136719 54.859375 197.425781 C 59.492188 195.71875 63.4375 193.367188 66.699219 190.386719 C 69.378906 187.933594 71.539062 185.152344 73.191406 182.054688 Z M 73.195312 152.746094 "/></clipPath><clipPath id="364fcfb12f"><path d="M 169.582031 134.648438 L 230.671875 134.648438 L 230.671875 200 L 169.582031 200 Z M 169.582031 134.648438 "/></clipPath><clipPath id="70ec2dfc60"><path d="M 183.007812 134.722656 L 169.597656 150.664062 L 189.933594 150.664062 L 189.933594 199.988281 L 208.394531 199.988281 L 208.394531 150.664062 L 230.507812 150.664062 L 230.507812 134.722656 Z M 183.007812 134.722656 "/></clipPath><clipPath id="10948ad677"><path d="M 73.082031 134.648438 L 183.097656 134.648438 L 183.097656 200 L 73.082031 200 Z M 73.082031 134.648438 "/></clipPath><clipPath id="d751a6672c"><path d="M 117.351562 186.988281 L 91.015625 186.988281 L 91.015625 174.128906 L 106.417969 174.128906 L 106.417969 160.582031 L 91.015625 160.582031 L 91.015625 147.722656 L 117.351562 147.722656 L 133.863281 167.359375 Z M 155.566406 167.351562 L 155.5625 167.347656 L 183.007812 134.722656 L 161.308594 134.722656 L 144.710938 154.453125 L 128.117188 134.722656 L 73.195312 134.722656 L 73.195312 199.988281 L 128.117188 199.988281 L 144.714844 180.257812 L 161.3125 199.988281 L 183.011719 199.988281 L 155.5625 167.359375 Z M 155.566406 167.351562 "/></clipPath><clipPath id="24de21e424"><path d="M 222.644531 224.828125 L 234.238281 224.828125 L 234.238281 226.507812 L 222.644531 226.507812 Z M 222.644531 226.507812 L 224.367188 226.507812 L 224.367188 231.496094 L 222.644531 231.496094 Z M 222.644531 231.496094 L 233 231.496094 L 233 233.171875 L 222.644531 233.171875 Z M 222.644531 233.171875 L 224.367188 233.171875 L 224.367188 238.605469 L 222.644531 238.605469 Z M 222.644531 238.605469 L 234.191406 238.605469 L 234.191406 240.285156 L 222.644531 240.285156 Z M 222.644531 238.605469 "/></clipPath><clipPath id="fc2ea7cfb3"><path d="M 236.960938 224.757812 L 252.558594 224.757812 L 252.558594 240.355469 L 236.960938 240.355469 Z M 236.960938 224.757812 "/></clipPath><clipPath id="a24fa54ffa"><path d="M 252.316406 224.828125 L 250.132812 224.828125 L 244.90625 231.332031 L 239.382812 224.828125 L 237.128906 224.828125 L 243.539062 232.332031 L 236.996094 240.285156 L 239.136719 240.285156 L 244.59375 233.574219 L 250.265625 240.285156 L 252.542969 240.285156 L 245.898438 232.496094 Z M 252.316406 224.828125 "/></clipPath><clipPath id="038d001a4a"><path d="M 254.042969 224.828125 L 267.003906 224.828125 L 267.003906 226.507812 L 254.042969 226.507812 Z M 259.5625 226.507812 L 261.285156 226.507812 L 261.285156 240.285156 L 259.5625 240.285156 Z M 259.5625 226.507812 "/></clipPath><clipPath id="68fadc74e9"><path d="M 270.429688 224.757812 L 284.058594 224.757812 L 284.058594 240.355469 L 270.429688 240.355469 Z M 270.429688 224.757812 "/></clipPath><clipPath id="0718a5dac2"><path d="M 272.167969 226.507812 L 277.867188 226.507812 C 278.515625 226.507812 279.105469 226.640625 279.632812 226.902344 C 280.164062 227.167969 280.585938 227.527344 280.890625 227.984375 C 281.199219 228.441406 281.355469 228.945312 281.355469 229.507812 C 281.355469 230.097656 281.207031 230.625 280.914062 231.085938 C 280.625 231.550781 280.214844 231.921875 279.703125 232.191406 C 279.1875 232.460938 278.597656 232.601562 277.933594 232.601562 L 272.167969 232.601562 Z M 280.660156 233.648438 C 281.433594 233.230469 282.046875 232.664062 282.503906 231.949219 C 282.957031 231.234375 283.1875 230.410156 283.1875 229.484375 C 283.1875 228.601562 282.964844 227.8125 282.523438 227.113281 C 282.078125 226.414062 281.492188 225.859375 280.753906 225.445312 C 280.015625 225.035156 279.191406 224.828125 278.261719 224.828125 L 270.445312 224.828125 L 270.445312 240.285156 L 272.164062 240.285156 L 272.164062 234.277344 L 277.609375 234.277344 L 281.882812 240.285156 L 284.003906 240.285156 L 279.582031 234.074219 C 279.960938 233.972656 280.320312 233.832031 280.660156 233.648438 "/></clipPath><clipPath id="852813be75"><path d="M 286.253906 224.757812 L 302.53125 224.757812 L 302.53125 240.355469 L 286.253906 240.355469 Z M 286.253906 224.757812 "/></clipPath><clipPath id="a0cb38657d"><path d="M 290.734375 234.5 L 293.054688 229.421875 C 293.246094 229.007812 293.40625 228.660156 293.53125 228.371094 L 293.882812 227.566406 C 293.992188 227.316406 294.109375 227.042969 294.226562 226.75 L 294.3125 226.523438 L 294.421875 226.582031 C 294.5625 226.941406 294.671875 227.210938 294.789062 227.457031 L 295.152344 228.273438 C 295.285156 228.570312 295.425781 228.914062 295.574219 229.3125 L 297.941406 234.5 Z M 300.582031 240.289062 L 302.503906 240.289062 L 295.484375 224.828125 L 293.339844 224.828125 L 286.277344 240.285156 L 288.089844 240.285156 L 289.96875 236.179688 L 298.707031 236.179688 Z M 300.582031 240.289062 "/></clipPath><clipPath id="d0cbf14ea7"><path d="M 236.027344 134.699219 L 369.449219 134.699219 L 369.449219 200 L 236.027344 200 Z M 236.027344 134.699219 "/></clipPath><clipPath id="9186788864"><path d="M 321.21875 176.769531 L 326.4375 165.675781 C 327.121094 164.183594 327.742188 162.800781 328.304688 161.527344 L 329.886719 157.800781 C 330.140625 157.179688 330.382812 156.558594 330.609375 155.929688 L 331.191406 157.609375 C 331.621094 158.820312 332.121094 160.082031 332.683594 161.386719 C 333.246094 162.691406 333.863281 164.121094 334.546875 165.675781 L 339.792969 176.769531 Z M 277.582031 161.296875 C 276.835938 162.476562 275.796875 163.378906 274.460938 164 C 273.125 164.621094 271.648438 164.933594 270.03125 164.933594 L 253.433594 164.933594 L 253.433594 149.546875 L 269.660156 149.546875 C 271.335938 149.546875 272.875 149.824219 274.273438 150.386719 C 275.675781 150.949219 276.761719 151.785156 277.539062 152.902344 C 278.316406 154.023438 278.707031 155.390625 278.707031 157.003906 C 278.707031 158.683594 278.332031 160.113281 277.585938 161.296875 M 338.835938 134.722656 L 322.796875 134.722656 L 295.464844 192.703125 L 283.628906 175.953125 C 284.109375 175.746094 284.582031 175.519531 285.042969 175.277344 C 288.773438 173.351562 291.710938 170.707031 293.855469 167.351562 C 296 163.992188 297.074219 160.140625 297.074219 155.789062 C 297.074219 151.433594 296.078125 147.707031 294.085938 144.597656 C 292.097656 141.492188 289.238281 139.066406 285.511719 137.328125 C 281.78125 135.585938 277.183594 134.71875 271.710938 134.71875 L 236.09375 134.71875 L 236.09375 199.988281 L 253.433594 199.988281 L 253.433594 178.167969 L 264.285156 178.167969 L 279.542969 199.988281 L 310.304688 199.988281 L 315.082031 189.824219 L 345.964844 189.824219 L 350.769531 199.988281 L 369.421875 199.988281 Z M 338.835938 134.722656 "/></clipPath><clipPath id="870b6ef698"><path d="M 354.535156 134.429688 L 366 134.429688 L 366 145.546875 L 354.535156 145.546875 Z M 354.535156 134.429688 "/></clipPath><clipPath id="102ff60337"><path d="M 364.371094 142.285156 C 363.945312 142.96875 363.382812 143.515625 362.6875 143.921875 C 361.992188 144.332031 361.226562 144.53125 360.378906 144.53125 C 359.519531 144.53125 358.738281 144.328125 358.039062 143.921875 C 357.339844 143.519531 356.777344 142.96875 356.355469 142.273438 C 355.929688 141.578125 355.722656 140.820312 355.722656 139.992188 C 355.722656 139.144531 355.9375 138.382812 356.367188 137.695312 C 356.792969 137.007812 357.359375 136.464844 358.0625 136.058594 C 358.765625 135.648438 359.535156 135.449219 360.378906 135.449219 C 361.226562 135.449219 361.992188 135.652344 362.6875 136.058594 C 363.382812 136.460938 363.941406 137.007812 364.371094 137.695312 C 364.804688 138.382812 365.015625 139.144531 365.015625 139.992188 C 365.015625 140.835938 364.800781 141.601562 364.371094 142.285156 M 365.53125 137.851562 C 365.238281 137.191406 364.832031 136.613281 364.3125 136.109375 C 363.792969 135.605469 363.203125 135.214844 362.535156 134.925781 C 361.867188 134.640625 361.148438 134.496094 360.378906 134.496094 C 359.613281 134.496094 358.890625 134.636719 358.207031 134.914062 C 357.523438 135.195312 356.929688 135.589844 356.429688 136.109375 C 355.925781 136.628906 355.523438 137.210938 355.222656 137.863281 C 354.917969 138.515625 354.765625 139.226562 354.765625 139.992188 C 354.765625 140.992188 355.019531 141.914062 355.519531 142.75 C 356.023438 143.582031 356.703125 144.25 357.5625 144.746094 C 358.425781 145.238281 359.363281 145.488281 360.382812 145.488281 C 361.136719 145.488281 361.84375 145.347656 362.511719 145.070312 C 363.179688 144.792969 363.773438 144.398438 364.300781 143.886719 C 364.828125 143.378906 365.238281 142.792969 365.53125 142.132812 C 365.824219 141.472656 365.972656 140.757812 365.972656 139.996094 C 365.972656 139.230469 365.820312 138.515625 365.53125 137.855469 "/></clipPath><clipPath id="d9d912298e"><path d="M 358.332031 136.867188 L 362.941406 136.867188 L 362.941406 142.835938 L 358.332031 142.835938 Z M 358.332031 136.867188 "/></clipPath><clipPath id="525022e3ec"><path d="M 360.476562 139.796875 L 359.375 139.796875 L 359.375 137.8125 L 360.523438 137.8125 C 360.902344 137.8125 361.214844 137.898438 361.453125 138.078125 C 361.691406 138.253906 361.8125 138.5 361.8125 138.820312 C 361.8125 139.105469 361.683594 139.34375 361.441406 139.523438 C 361.199219 139.703125 360.871094 139.796875 360.476562 139.796875 M 362.113281 140.144531 C 362.519531 139.800781 362.722656 139.351562 362.722656 138.792969 C 362.722656 138.25 362.535156 137.808594 362.160156 137.464844 C 361.785156 137.117188 361.304688 136.949219 360.714844 136.949219 L 358.445312 136.949219 L 358.445312 142.785156 L 359.375 142.785156 L 359.375 140.660156 L 360.6875 140.660156 C 360.730469 140.660156 360.773438 140.65625 360.816406 140.65625 L 361.90625 142.789062 L 362.90625 142.789062 L 361.699219 140.417969 C 361.84375 140.34375 361.976562 140.257812 362.105469 140.148438 "/></clipPath></defs><g id="14c3a6d69f"><g clip-rule="nonzero" clip-path="url(#afd9dbd9fd)"><g clip-rule="nonzero" clip-path="url(#9686b31845)"><path style=" stroke:none;fill-rule:nonzero;fill:#ffffff;fill-opacity:1;" d="M 72.617188 224.828125 L 87.984375 224.828125 L 87.984375 240.257812 L 72.617188 240.257812 Z M 72.617188 224.828125 "/></g></g><g clip-rule="nonzero" clip-path="url(#187a6436f6)"><g clip-rule="nonzero" clip-path="url(#61bb9b4ce5)"><path style=" stroke:none;fill-rule:nonzero;fill:#ffffff;fill-opacity:1;" d="M 90.148438 222.710938 L 164.171875 222.710938 L 164.171875 242.46875 L 90.148438 242.46875 Z M 90.148438 222.710938 "/></g></g><g clip-rule="nonzero" clip-path="url(#a69d99df18)"><g clip-rule="nonzero" clip-path="url(#5ea82ace58)"><path style=" stroke:none;fill-rule:nonzero;fill:#ffffff;fill-opacity:1;" d="M 90.148438 222.710938 L 164.171875 222.710938 L 164.171875 242.46875 L 90.148438 242.46875 Z M 90.148438 222.710938 "/></g></g><g clip-rule="nonzero" clip-path="url(#d105292153)"><g clip-rule="nonzero" clip-path="url(#0d3674d089)"><path style=" stroke:none;fill-rule:nonzero;fill:#ffffff;fill-opacity:1;" d="M 90.148438 222.710938 L 164.171875 222.710938 L 164.171875 242.46875 L 90.148438 242.46875 Z M 90.148438 222.710938 "/></g></g><g clip-rule="nonzero" clip-path="url(#4f43a79534)"><path style=" stroke:none;fill-rule:nonzero;fill:#ffffff;fill-opacity:1;" d="M 90.148438 222.710938 L 164.171875 222.710938 L 164.171875 242.46875 L 90.148438 242.46875 Z M 90.148438 222.710938 "/></g><g clip-rule="nonzero" clip-path="url(#8c165ca7a5)"><g clip-rule="nonzero" clip-path="url(#d4f2925ed5)"><path style=" stroke:none;fill-rule:nonzero;fill:#ffffff;fill-opacity:1;" d="M 166.917969 224.828125 L 180.472656 224.828125 L 180.472656 240.292969 L 166.917969 240.292969 Z M 166.917969 224.828125 "/></g></g><g clip-rule="nonzero" clip-path="url(#495942fc37)"><path style=" stroke:none;fill-rule:nonzero;fill:#ffffff;fill-opacity:1;" d="M 184.535156 224.828125 L 193.476562 224.828125 L 193.476562 240.269531 L 184.535156 240.269531 Z M 184.535156 224.828125 "/></g><g clip-rule="nonzero" clip-path="url(#52bf0f7673)"><path style=" stroke:none;fill-rule:nonzero;fill:#ffffff;fill-opacity:1;" d="M 198.6875 224.828125 L 210.28125 224.828125 L 210.28125 240.269531 L 198.6875 240.269531 Z M 198.6875 224.828125 "/></g><g clip-rule="nonzero" clip-path="url(#40e1b3a5ba)"><g clip-rule="nonzero" clip-path="url(#423e909762)"><path style=" stroke:none;fill-rule:nonzero;fill:#ffffff;fill-opacity:1;" d="M 3.617188 132.757812 L 232.5625 132.757812 L 232.5625 201.953125 L 3.617188 201.953125 Z M 3.617188 132.757812 "/></g></g><g clip-rule="nonzero" clip-path="url(#364fcfb12f)"><g clip-rule="nonzero" clip-path="url(#70ec2dfc60)"><path style=" stroke:none;fill-rule:nonzero;fill:#ffffff;fill-opacity:1;" d="M 3.617188 132.757812 L 232.5625 132.757812 L 232.5625 201.953125 L 3.617188 201.953125 Z M 3.617188 132.757812 "/></g></g><g clip-rule="nonzero" clip-path="url(#10948ad677)"><g clip-rule="nonzero" clip-path="url(#d751a6672c)"><path style=" stroke:none;fill-rule:nonzero;fill:#e40520;fill-opacity:1;" d="M 3.617188 132.757812 L 232.5625 132.757812 L 232.5625 201.953125 L 3.617188 201.953125 Z M 3.617188 132.757812 "/></g></g><g clip-rule="nonzero" clip-path="url(#24de21e424)"><path style=" stroke:none;fill-rule:nonzero;fill:#ffffff;fill-opacity:1;" d="M 220.679688 222.863281 L 304.5 222.863281 L 304.5 242.25 L 220.679688 242.25 Z M 220.679688 222.863281 "/></g><g clip-rule="nonzero" clip-path="url(#fc2ea7cfb3)"><g clip-rule="nonzero" clip-path="url(#a24fa54ffa)"><path style=" stroke:none;fill-rule:nonzero;fill:#ffffff;fill-opacity:1;" d="M 220.679688 222.863281 L 304.5 222.863281 L 304.5 242.25 L 220.679688 242.25 Z M 220.679688 222.863281 "/></g></g><g clip-rule="nonzero" clip-path="url(#038d001a4a)"><path style=" stroke:none;fill-rule:nonzero;fill:#ffffff;fill-opacity:1;" d="M 220.679688 222.863281 L 304.5 222.863281 L 304.5 242.25 L 220.679688 242.25 Z M 220.679688 222.863281 "/></g><g clip-rule="nonzero" clip-path="url(#68fadc74e9)"><g clip-rule="nonzero" clip-path="url(#0718a5dac2)"><path style=" stroke:none;fill-rule:nonzero;fill:#ffffff;fill-opacity:1;" d="M 220.679688 222.863281 L 304.5 222.863281 L 304.5 242.25 L 220.679688 242.25 Z M 220.679688 222.863281 "/></g></g><g clip-rule="nonzero" clip-path="url(#852813be75)"><g clip-rule="nonzero" clip-path="url(#a0cb38657d)"><path style=" stroke:none;fill-rule:nonzero;fill:#ffffff;fill-opacity:1;" d="M 220.679688 222.863281 L 304.5 222.863281 L 304.5 242.25 L 220.679688 242.25 Z M 220.679688 222.863281 "/></g></g><g clip-rule="nonzero" clip-path="url(#d0cbf14ea7)"><g clip-rule="nonzero" clip-path="url(#9186788864)"><path style=" stroke:none;fill-rule:nonzero;fill:#ffffff;fill-opacity:1;" d="M 234.128906 132.53125 L 371.347656 132.53125 L 371.347656 201.953125 L 234.128906 201.953125 Z M 234.128906 132.53125 "/></g></g><g clip-rule="nonzero" clip-path="url(#870b6ef698)"><g clip-rule="nonzero" clip-path="url(#102ff60337)"><path style=" stroke:none;fill-rule:nonzero;fill:#ffffff;fill-opacity:1;" d="M 234.128906 132.53125 L 371.347656 132.53125 L 371.347656 201.953125 L 234.128906 201.953125 Z M 234.128906 132.53125 "/></g></g><g clip-rule="nonzero" clip-path="url(#d9d912298e)"><g clip-rule="nonzero" clip-path="url(#525022e3ec)"><path style=" stroke:none;fill-rule:nonzero;fill:#ffffff;fill-opacity:1;" d="M 234.128906 132.53125 L 371.347656 132.53125 L 371.347656 201.953125 L 234.128906 201.953125 Z M 234.128906 132.53125 "/></g></g></g></svg>