<?xml version="1.0" encoding="UTF-8" standalone="no"?>
<svg
   width="500"
   zoomAndPan="magnify"
   viewBox="0 0 375 374.999991"
   height="500"
   preserveAspectRatio="xMidYMid meet"
   version="1.2"
   id="svg4"
   sodipodi:docname="3.svg"
   inkscape:version="1.4.2 (f4327f4, 2025-05-13)"
   xmlns:inkscape="http://www.inkscape.org/namespaces/inkscape"
   xmlns:sodipodi="http://sodipodi.sourceforge.net/DTD/sodipodi-0.dtd"
   xmlns="http://www.w3.org/2000/svg"
   xmlns:svg="http://www.w3.org/2000/svg">
  <sodipodi:namedview
     id="namedview4"
     pagecolor="#ffffff"
     bordercolor="#000000"
     borderopacity="0.25"
     inkscape:showpageshadow="2"
     inkscape:pageopacity="0.0"
     inkscape:pagecheckerboard="0"
     inkscape:deskcolor="#d1d1d1"
     inkscape:zoom="1.815"
     inkscape:cx="399.72452"
     inkscape:cy="324.24242"
     inkscape:window-width="3840"
     inkscape:window-height="2054"
     inkscape:window-x="-11"
     inkscape:window-y="-11"
     inkscape:window-maximized="1"
     inkscape:current-layer="624e8ae7c6" />
  <defs
     id="defs2">
    <clipPath
       id="3dcfe16413">
      <path
         d="M 78.6875 4.421875 L 296.765625 4.421875 L 296.765625 370.578125 L 78.6875 370.578125 Z M 78.6875 4.421875 "
         id="path1" />
    </clipPath>
    <clipPath
       id="817c1ec0bc">
      <path
         d="M 252.964844 223.335938 L 252.964844 311.148438 L 210.082031 311.148438 L 210.082031 259.792969 L 164.914062 259.792969 L 164.914062 311.148438 L 122.03125 311.148438 L 122.03125 223.335938 L 187.515625 168.285156 Z M 187.5 95.921875 L 187.484375 95.9375 L 78.6875 4.421875 L 78.6875 76.769531 L 144.476562 132.109375 L 78.6875 187.449219 L 78.6875 370.578125 L 296.308594 370.578125 L 296.308594 187.449219 L 230.523438 132.109375 L 296.308594 76.769531 L 296.308594 4.421875 L 187.515625 95.933594 Z M 187.5 95.921875 "
         id="path2" />
    </clipPath>
  </defs>
  <g
     id="624e8ae7c6">
    <rect
       x="0"
       width="375"
       y="0"
       height="374.999991"
       style="fill:#ffffff;fill-opacity:1;stroke:none;"
       id="rect2" />
    <rect
       x="0"
       width="375"
       y="0"
       height="374.999991"
       style="fill:#ffffff;fill-opacity:1;stroke:none;"
       id="rect3" />
    <g
       clip-rule="nonzero"
       clip-path="url(#3dcfe16413)"
       id="g4"
       transform="matrix(0.90125459,0,0,0.90125459,18.553489,18.514764)">
      <g
         clip-rule="nonzero"
         clip-path="url(#817c1ec0bc)"
         id="g3">
        <path
           style="fill:#e40520;fill-opacity:1;fill-rule:nonzero;stroke:none"
           d="M 78.6875,4.421875 H 296.22656 V 370.57812 H 78.6875 Z m 0,0"
           id="path3" />
      </g>
    </g>
  </g>
</svg>
