<svg xmlns="http://www.w3.org/2000/svg" xmlns:xlink="http://www.w3.org/1999/xlink" width="500" zoomAndPan="magnify" viewBox="0 0 375 374.999991" height="500" preserveAspectRatio="xMidYMid meet" version="1.2"><defs><clipPath id="beb68cc780"><path d="M 78.6875 4.421875 L 296.765625 4.421875 L 296.765625 370.578125 L 78.6875 370.578125 Z M 78.6875 4.421875 "/></clipPath><clipPath id="16b14a85ab"><path d="M 252.964844 223.335938 L 252.964844 311.148438 L 210.082031 311.148438 L 210.082031 259.792969 L 164.914062 259.792969 L 164.914062 311.148438 L 122.03125 311.148438 L 122.03125 223.335938 L 187.515625 168.285156 Z M 187.5 95.921875 L 187.484375 95.9375 L 78.6875 4.421875 L 78.6875 76.769531 L 144.476562 132.109375 L 78.6875 187.449219 L 78.6875 370.578125 L 296.308594 370.578125 L 296.308594 187.449219 L 230.523438 132.109375 L 296.308594 76.769531 L 296.308594 4.421875 L 187.515625 95.933594 Z M 187.5 95.921875 "/></clipPath></defs><g id="5644353499"><g clip-rule="nonzero" clip-path="url(#beb68cc780)"><g clip-rule="nonzero" clip-path="url(#16b14a85ab)"><path style=" stroke:none;fill-rule:nonzero;fill:#e40520;fill-opacity:1;" d="M 78.6875 4.421875 L 296.226562 4.421875 L 296.226562 370.578125 L 78.6875 370.578125 Z M 78.6875 4.421875 "/></g></g></g></svg>