<svg xmlns="http://www.w3.org/2000/svg" xmlns:xlink="http://www.w3.org/1999/xlink" width="500" zoomAndPan="magnify" viewBox="0 0 375 374.999991" height="500" preserveAspectRatio="xMidYMid meet" version="1.2"><defs><clipPath id="fd13e8cbba"><path d="M 71.273438 225.265625 L 86.878906 225.265625 L 86.878906 240.933594 L 71.273438 240.933594 Z M 71.273438 225.265625 "/></clipPath><clipPath id="752b32ceca"><path d="M 84.527344 235.527344 C 84.238281 236.265625 83.808594 236.914062 83.246094 237.460938 C 82.679688 238.007812 81.984375 238.4375 81.164062 238.746094 C 80.347656 239.050781 79.410156 239.203125 78.351562 239.203125 L 73.011719 239.203125 L 73.011719 226.964844 L 78.355469 226.964844 C 79.414062 226.964844 80.351562 227.117188 81.167969 227.433594 C 81.988281 227.746094 82.679688 228.175781 83.25 228.726562 C 83.816406 229.28125 84.242188 229.925781 84.53125 230.660156 C 84.824219 231.394531 84.96875 232.207031 84.96875 233.085938 C 84.96875 233.980469 84.828125 234.792969 84.53125 235.527344 M 84.585938 227.53125 C 83.855469 226.824219 82.976562 226.269531 81.953125 225.867188 C 80.925781 225.464844 79.757812 225.265625 78.46875 225.265625 L 71.273438 225.265625 L 71.273438 240.902344 L 78.46875 240.902344 C 79.761719 240.902344 80.921875 240.699219 81.953125 240.296875 C 82.980469 239.898438 83.859375 239.34375 84.585938 238.644531 C 85.316406 237.945312 85.871094 237.121094 86.253906 236.175781 C 86.636719 235.230469 86.820312 234.203125 86.820312 233.085938 C 86.820312 231.984375 86.632812 230.957031 86.253906 230.011719 C 85.875 229.066406 85.320312 228.238281 84.585938 227.53125 "/></clipPath><clipPath id="f6dc25506d"><path d="M 90.960938 225.230469 L 104.785156 225.230469 L 104.785156 240.925781 L 90.960938 240.925781 Z M 90.960938 225.230469 "/></clipPath><clipPath id="a4e6c961e0"><path d="M 92.738281 226.964844 L 98.5 226.964844 C 99.15625 226.964844 99.753906 227.101562 100.289062 227.367188 C 100.824219 227.632812 101.25 228 101.5625 228.460938 C 101.871094 228.921875 102.03125 229.433594 102.03125 230.003906 C 102.03125 230.597656 101.878906 231.132812 101.585938 231.601562 C 101.292969 232.070312 100.878906 232.441406 100.355469 232.71875 C 99.835938 232.992188 99.238281 233.128906 98.570312 233.128906 L 92.738281 233.128906 Z M 101.328125 234.191406 C 102.109375 233.765625 102.730469 233.195312 103.191406 232.46875 C 103.652344 231.746094 103.882812 230.917969 103.882812 229.980469 C 103.882812 229.085938 103.660156 228.285156 103.210938 227.578125 C 102.761719 226.871094 102.167969 226.308594 101.421875 225.890625 C 100.675781 225.476562 99.835938 225.269531 98.898438 225.269531 L 90.996094 225.269531 L 90.996094 240.902344 L 92.738281 240.902344 L 92.738281 234.828125 L 98.246094 234.828125 L 102.566406 240.902344 L 104.710938 240.902344 L 100.238281 234.617188 C 100.621094 234.511719 100.984375 234.375 101.328125 234.1875 "/></clipPath><clipPath id="fb0dbc1112"><path d="M 107.671875 225.074219 L 125.710938 225.074219 L 125.710938 241.160156 L 107.671875 241.160156 Z M 107.671875 225.074219 "/></clipPath><clipPath id="308bcafc30"><path d="M 123.332031 235.617188 C 122.980469 236.386719 122.484375 237.054688 121.84375 237.617188 C 121.203125 238.183594 120.445312 238.625 119.566406 238.9375 C 118.6875 239.25 117.726562 239.40625 116.683594 239.40625 C 115.644531 239.40625 114.683594 239.25 113.804688 238.9375 C 112.925781 238.625 112.167969 238.1875 111.535156 237.617188 C 110.898438 237.050781 110.414062 236.386719 110.070312 235.617188 C 109.730469 234.851562 109.558594 234.019531 109.558594 233.125 C 109.558594 232.214844 109.730469 231.382812 110.070312 230.613281 C 110.414062 229.847656 110.902344 229.179688 111.535156 228.613281 C 112.164062 228.050781 112.921875 227.605469 113.804688 227.289062 C 114.6875 226.96875 115.644531 226.808594 116.683594 226.808594 C 117.726562 226.808594 118.6875 226.964844 119.566406 227.289062 C 120.445312 227.609375 121.203125 228.050781 121.84375 228.613281 C 122.484375 229.179688 122.980469 229.847656 123.332031 230.613281 C 123.679688 231.382812 123.855469 232.21875 123.855469 233.125 C 123.855469 234.019531 123.679688 234.851562 123.332031 235.617188 M 123.121094 227.398438 C 122.316406 226.675781 121.371094 226.113281 120.28125 225.714844 C 119.191406 225.3125 117.996094 225.109375 116.683594 225.109375 C 115.390625 225.109375 114.195312 225.3125 113.113281 225.714844 C 112.027344 226.113281 111.082031 226.683594 110.273438 227.410156 C 109.46875 228.136719 108.847656 228.992188 108.410156 229.964844 C 107.972656 230.941406 107.75 231.996094 107.75 233.125 C 107.75 234.253906 107.96875 235.3125 108.410156 236.285156 C 108.851562 237.261719 109.472656 238.109375 110.273438 238.835938 C 111.078125 239.558594 112.023438 240.117188 113.113281 240.519531 C 114.199219 240.921875 115.390625 241.125 116.683594 241.125 C 117.996094 241.125 119.191406 240.921875 120.28125 240.519531 C 121.371094 240.117188 122.3125 239.554688 123.121094 238.835938 C 123.925781 238.113281 124.550781 237.265625 124.996094 236.285156 C 125.441406 235.308594 125.667969 234.257812 125.667969 233.125 C 125.667969 231.980469 125.445312 230.921875 124.996094 229.941406 C 124.546875 228.964844 123.921875 228.117188 123.121094 227.394531 "/></clipPath><clipPath id="c839b825a4"><path d="M 128.523438 225.152344 L 146.25 225.152344 L 146.25 241.160156 L 128.523438 241.160156 Z M 128.523438 225.152344 "/></clipPath><clipPath id="bc35b19d17"><path d="M 146.148438 233.351562 L 137.820312 233.351562 L 137.820312 235.050781 L 144.335938 235.050781 L 144.339844 235.140625 C 144.355469 235.707031 144.199219 236.25 143.871094 236.769531 C 143.546875 237.292969 143.082031 237.75 142.488281 238.140625 C 141.898438 238.535156 141.191406 238.847656 140.390625 239.070312 C 139.585938 239.292969 138.738281 239.402344 137.84375 239.402344 C 136.8125 239.402344 135.859375 239.257812 134.972656 238.976562 C 134.085938 238.695312 133.300781 238.28125 132.617188 237.738281 C 131.933594 237.191406 131.398438 236.527344 131.019531 235.738281 C 130.636719 234.945312 130.449219 234.070312 130.449219 233.101562 C 130.449219 232.207031 130.632812 231.378906 130.996094 230.609375 C 131.363281 229.84375 131.878906 229.179688 132.550781 228.625 C 133.222656 228.066406 134.003906 227.628906 134.898438 227.316406 C 135.792969 227 136.753906 226.847656 137.777344 226.847656 C 138.496094 226.847656 139.207031 226.941406 139.914062 227.136719 L 141.902344 227.894531 C 142.515625 228.210938 143.066406 228.566406 143.542969 228.96875 L 144.636719 227.695312 C 144.234375 227.234375 143.675781 226.8125 142.96875 226.425781 C 142.261719 226.039062 141.464844 225.730469 140.582031 225.5 C 139.699219 225.269531 138.753906 225.152344 137.753906 225.152344 C 136.476562 225.152344 135.273438 225.351562 134.15625 225.746094 C 133.039062 226.140625 132.066406 226.695312 131.246094 227.410156 C 130.421875 228.125 129.769531 228.972656 129.300781 229.945312 C 128.832031 230.921875 128.597656 231.976562 128.597656 233.105469 C 128.597656 234.34375 128.832031 235.457031 129.300781 236.445312 C 129.769531 237.433594 130.425781 238.273438 131.269531 238.957031 C 132.109375 239.640625 133.078125 240.171875 134.171875 240.554688 C 135.269531 240.9375 136.457031 241.125 137.734375 241.125 C 138.945312 241.125 140.058594 240.964844 141.085938 240.644531 C 142.109375 240.320312 143.011719 239.871094 143.789062 239.292969 C 144.5625 238.710938 145.164062 238.007812 145.585938 237.179688 C 146.007812 236.355469 146.222656 235.449219 146.222656 234.464844 L 146.222656 234.164062 L 146.214844 233.921875 C 146.183594 233.625 146.167969 233.484375 146.152344 233.347656 "/></clipPath><clipPath id="f7e55199b8"><path d="M 150.167969 225.265625 L 161.898438 225.265625 L 161.898438 226.964844 L 150.167969 226.964844 Z M 150.167969 226.964844 L 151.914062 226.964844 L 151.914062 232.011719 L 150.167969 232.011719 Z M 150.167969 232.011719 L 160.644531 232.011719 L 160.644531 233.710938 L 150.167969 233.710938 Z M 150.167969 233.710938 L 151.914062 233.710938 L 151.914062 239.203125 L 150.167969 239.203125 Z M 150.167969 239.203125 L 161.847656 239.203125 L 161.847656 240.902344 L 150.167969 240.902344 Z M 150.167969 239.203125 "/></clipPath><clipPath id="3ac29d30a4"><path d="M 166.675781 225.265625 L 180.390625 225.265625 L 180.390625 240.910156 L 166.675781 240.910156 Z M 166.675781 225.265625 "/></clipPath><clipPath id="263fb2ebc9"><path d="M 168.417969 226.964844 L 174.179688 226.964844 C 174.835938 226.964844 175.433594 227.097656 175.96875 227.363281 C 176.503906 227.632812 176.929688 227.996094 177.242188 228.457031 C 177.550781 228.917969 177.710938 229.433594 177.710938 230 C 177.710938 230.597656 177.558594 231.128906 177.265625 231.597656 C 176.96875 232.066406 176.558594 232.441406 176.035156 232.714844 C 175.515625 232.988281 174.917969 233.128906 174.246094 233.128906 L 168.417969 233.128906 Z M 177.007812 234.191406 C 177.789062 233.765625 178.410156 233.191406 178.871094 232.46875 C 179.332031 231.746094 179.5625 230.914062 179.5625 229.976562 C 179.5625 229.082031 179.339844 228.285156 178.890625 227.574219 C 178.441406 226.867188 177.847656 226.308594 177.101562 225.890625 C 176.355469 225.472656 175.523438 225.265625 174.582031 225.265625 L 166.675781 225.265625 L 166.675781 240.902344 L 168.417969 240.902344 L 168.417969 234.824219 L 173.925781 234.824219 L 178.246094 240.902344 L 180.390625 240.902344 L 175.917969 234.617188 C 176.296875 234.515625 176.664062 234.375 177.007812 234.191406 "/></clipPath><clipPath id="94bb2dd672"><path d="M 184.5 225.265625 L 193.546875 225.265625 L 193.546875 226.988281 L 184.5 226.988281 Z M 188.140625 226.988281 L 189.882812 226.988281 L 189.882812 239.179688 L 188.140625 239.179688 Z M 184.5 239.179688 L 193.546875 239.179688 L 193.546875 240.902344 L 184.5 240.902344 Z M 184.5 239.179688 "/></clipPath><clipPath id="ad97fa4d55"><path d="M 198.820312 225.265625 L 210.550781 225.265625 L 210.550781 226.964844 L 198.820312 226.964844 Z M 198.820312 226.964844 L 200.5625 226.964844 L 200.5625 232.011719 L 198.820312 232.011719 Z M 198.820312 232.011719 L 209.296875 232.011719 L 209.296875 233.707031 L 198.820312 233.707031 Z M 198.820312 233.707031 L 200.5625 233.707031 L 200.5625 239.207031 L 198.820312 239.207031 Z M 198.820312 239.207031 L 210.5 239.207031 L 210.5 240.902344 L 198.820312 240.902344 Z M 198.820312 239.207031 "/></clipPath><clipPath id="1ec3240f50"><path d="M 3.378906 134.03125 L 72 134.03125 L 72 200.210938 L 3.378906 200.210938 Z M 3.378906 134.03125 "/></clipPath><clipPath id="7c7da6dfdb"><path d="M 55.050781 173.441406 C 54.230469 175.457031 53.035156 177.246094 51.464844 178.820312 C 49.894531 180.394531 47.894531 181.648438 45.476562 182.589844 C 43.054688 183.53125 40.203125 184.003906 36.9375 184.003906 L 22.128906 184.003906 L 22.128906 150.234375 L 36.941406 150.234375 C 40.207031 150.234375 43.058594 150.707031 45.480469 151.648438 C 47.898438 152.589844 49.894531 153.851562 51.46875 155.417969 C 53.042969 156.988281 54.234375 158.785156 55.054688 160.796875 C 55.875 162.808594 56.28125 164.914062 56.28125 167.117188 C 56.28125 169.320312 55.875 171.425781 55.054688 173.4375 M 71.855469 152.339844 C 70.1875 149.199219 68.019531 146.375 65.335938 143.867188 C 62.066406 140.816406 58.074219 138.429688 53.355469 136.695312 C 48.640625 134.960938 43.320312 134.101562 37.410156 134.101562 L 3.449219 134.101562 L 3.449219 200.136719 L 37.410156 200.136719 C 43.320312 200.136719 48.621094 199.273438 53.304688 197.542969 C 57.992188 195.816406 61.984375 193.4375 65.285156 190.421875 C 67.996094 187.941406 70.183594 185.125 71.851562 181.992188 Z M 71.855469 152.339844 "/></clipPath><clipPath id="167a89a209"><path d="M 169.371094 134.03125 L 231.175781 134.03125 L 231.175781 200.210938 L 169.371094 200.210938 Z M 169.371094 134.03125 "/></clipPath><clipPath id="2e4843d214"><path d="M 182.957031 134.101562 L 169.386719 150.234375 L 189.964844 150.234375 L 189.964844 200.136719 L 208.640625 200.136719 L 208.640625 150.234375 L 231.011719 150.234375 L 231.011719 134.101562 Z M 182.957031 134.101562 "/></clipPath><clipPath id="1c7c7a532e"><path d="M 71.746094 134.03125 L 183 134.03125 L 183 200.210938 L 71.746094 200.210938 Z M 71.746094 134.03125 "/></clipPath><clipPath id="8737019b23"><path d="M 116.53125 186.984375 L 89.882812 186.984375 L 89.882812 173.972656 L 105.46875 173.972656 L 105.46875 160.269531 L 89.882812 160.269531 L 89.882812 147.253906 L 116.53125 147.253906 L 133.238281 167.125 Z M 155.191406 167.117188 L 155.1875 167.113281 L 182.957031 134.101562 L 161.003906 134.101562 L 144.210938 154.0625 L 127.421875 134.101562 L 71.855469 134.101562 L 71.855469 200.136719 L 127.421875 200.136719 L 144.214844 180.175781 L 161.007812 200.136719 L 182.960938 200.136719 L 155.1875 167.125 Z M 155.191406 167.117188 "/></clipPath><clipPath id="6a2f0baa39"><path d="M 223.054688 225.265625 L 234.785156 225.265625 L 234.785156 226.964844 L 223.054688 226.964844 Z M 223.054688 226.964844 L 224.796875 226.964844 L 224.796875 232.011719 L 223.054688 232.011719 Z M 223.054688 232.011719 L 233.535156 232.011719 L 233.535156 233.707031 L 223.054688 233.707031 Z M 223.054688 233.707031 L 224.796875 233.707031 L 224.796875 239.207031 L 223.054688 239.207031 Z M 223.054688 239.207031 L 234.738281 239.207031 L 234.738281 240.902344 L 223.054688 240.902344 Z M 223.054688 239.207031 "/></clipPath><clipPath id="c937d9b596"><path d="M 237.539062 225.195312 L 253.320312 225.195312 L 253.320312 240.976562 L 237.539062 240.976562 Z M 237.539062 225.195312 "/></clipPath><clipPath id="979ff1f920"><path d="M 253.078125 225.265625 L 250.867188 225.265625 L 245.578125 231.84375 L 239.988281 225.265625 L 237.710938 225.265625 L 244.195312 232.859375 L 237.574219 240.902344 L 239.742188 240.902344 L 245.261719 234.113281 L 251.003906 240.902344 L 253.304688 240.902344 L 246.582031 233.023438 Z M 253.078125 225.265625 "/></clipPath><clipPath id="54f307f581"><path d="M 254.820312 225.265625 L 267.933594 225.265625 L 267.933594 226.964844 L 254.820312 226.964844 Z M 260.40625 226.964844 L 262.148438 226.964844 L 262.148438 240.902344 L 260.40625 240.902344 Z M 260.40625 226.964844 "/></clipPath><clipPath id="49314a6a3f"><path d="M 271.398438 225.195312 L 285.1875 225.195312 L 285.1875 240.976562 L 271.398438 240.976562 Z M 271.398438 225.195312 "/></clipPath><clipPath id="7bbb7d5821"><path d="M 273.160156 226.964844 L 278.925781 226.964844 C 279.582031 226.964844 280.175781 227.097656 280.714844 227.363281 C 281.25 227.632812 281.675781 227.996094 281.984375 228.457031 C 282.296875 228.917969 282.453125 229.429688 282.453125 230 C 282.453125 230.597656 282.304688 231.128906 282.007812 231.597656 C 281.714844 232.066406 281.300781 232.441406 280.78125 232.714844 C 280.261719 232.988281 279.664062 233.128906 278.992188 233.128906 L 273.160156 233.128906 Z M 281.75 234.1875 C 282.535156 233.765625 283.152344 233.191406 283.613281 232.46875 C 284.074219 231.746094 284.304688 230.914062 284.304688 229.976562 C 284.304688 229.082031 284.082031 228.28125 283.632812 227.574219 C 283.183594 226.867188 282.59375 226.308594 281.847656 225.890625 C 281.097656 225.472656 280.265625 225.265625 279.324219 225.265625 L 271.417969 225.265625 L 271.417969 240.902344 L 273.15625 240.902344 L 273.15625 234.824219 L 278.667969 234.824219 L 282.988281 240.902344 L 285.132812 240.902344 L 280.660156 234.617188 C 281.042969 234.515625 281.410156 234.375 281.75 234.1875 "/></clipPath><clipPath id="4c72521c3d"><path d="M 287.410156 225.195312 L 303.878906 225.195312 L 303.878906 240.976562 L 287.410156 240.976562 Z M 287.410156 225.195312 "/></clipPath><clipPath id="071b694139"><path d="M 291.941406 235.050781 L 294.289062 229.914062 C 294.484375 229.496094 294.644531 229.140625 294.773438 228.851562 L 295.128906 228.035156 C 295.242188 227.78125 295.355469 227.507812 295.476562 227.210938 L 295.5625 226.980469 L 295.671875 227.039062 C 295.816406 227.40625 295.929688 227.675781 296.042969 227.925781 L 296.414062 228.75 C 296.546875 229.050781 296.6875 229.398438 296.839844 229.800781 L 299.234375 235.050781 Z M 301.90625 240.90625 L 303.851562 240.90625 L 296.746094 225.265625 L 294.582031 225.265625 L 287.433594 240.902344 L 289.265625 240.902344 L 291.167969 236.75 L 300.011719 236.75 Z M 301.90625 240.90625 "/></clipPath><clipPath id="e62dcbb80a"><path d="M 236.59375 134.082031 L 371.582031 134.082031 L 371.582031 200.203125 L 236.59375 200.203125 Z M 236.59375 134.082031 "/></clipPath><clipPath id="84ee2ff1f5"><path d="M 322.785156 176.644531 L 328.0625 165.421875 C 328.753906 163.910156 329.382812 162.511719 329.949219 161.222656 L 331.554688 157.453125 C 331.8125 156.824219 332.054688 156.195312 332.285156 155.558594 L 332.871094 157.261719 C 333.308594 158.484375 333.816406 159.761719 334.382812 161.082031 C 334.953125 162.398438 335.574219 163.847656 336.265625 165.421875 L 341.578125 176.644531 Z M 278.636719 160.988281 C 277.882812 162.183594 276.828125 163.09375 275.476562 163.722656 C 274.125 164.351562 272.632812 164.667969 271 164.667969 L 254.207031 164.667969 L 254.207031 149.101562 L 270.621094 149.101562 C 272.316406 149.101562 273.875 149.382812 275.292969 149.953125 C 276.707031 150.519531 277.808594 151.367188 278.59375 152.5 C 279.382812 153.632812 279.773438 155.015625 279.773438 156.648438 C 279.773438 158.347656 279.398438 159.792969 278.640625 160.988281 M 340.605469 134.105469 L 324.382812 134.105469 L 296.730469 192.761719 L 284.753906 175.820312 C 285.238281 175.609375 285.71875 175.378906 286.1875 175.136719 C 289.957031 173.1875 292.929688 170.511719 295.101562 167.113281 C 297.269531 163.714844 298.355469 159.820312 298.355469 155.417969 C 298.355469 151.011719 297.351562 147.242188 295.335938 144.097656 C 293.320312 140.953125 290.429688 138.5 286.660156 136.738281 C 282.886719 134.980469 278.234375 134.101562 272.695312 134.101562 L 236.660156 134.101562 L 236.660156 200.136719 L 254.207031 200.136719 L 254.207031 178.058594 L 265.183594 178.058594 L 280.621094 200.136719 L 311.742188 200.136719 L 316.578125 189.851562 L 347.820312 189.851562 L 352.683594 200.136719 L 371.550781 200.136719 Z M 340.605469 134.105469 "/></clipPath><clipPath id="06ac303a20"><path d="M 356.492188 133.808594 L 368.289062 133.808594 L 368.289062 145 L 356.492188 145 Z M 356.492188 133.808594 "/></clipPath><clipPath id="7ea442dbf3"><path d="M 366.441406 141.753906 C 366.007812 142.445312 365.441406 143 364.738281 143.414062 C 364.035156 143.828125 363.257812 144.027344 362.40625 144.027344 C 361.535156 144.027344 360.742188 143.824219 360.035156 143.414062 C 359.328125 143.003906 358.757812 142.445312 358.332031 141.742188 C 357.902344 141.039062 357.691406 140.273438 357.691406 139.433594 C 357.691406 138.578125 357.910156 137.808594 358.34375 137.113281 C 358.777344 136.417969 359.347656 135.867188 360.058594 135.457031 C 360.769531 135.042969 361.550781 134.839844 362.40625 134.839844 C 363.257812 134.839844 364.035156 135.046875 364.738281 135.457031 C 365.441406 135.863281 366.003906 136.417969 366.441406 137.113281 C 366.878906 137.808594 367.09375 138.578125 367.09375 139.433594 C 367.09375 140.289062 366.875 141.0625 366.441406 141.753906 M 367.617188 137.273438 C 367.316406 136.605469 366.90625 136.015625 366.382812 135.507812 C 365.859375 135 365.257812 134.601562 364.582031 134.3125 C 363.90625 134.019531 363.179688 133.875 362.40625 133.875 C 361.628906 133.875 360.898438 134.015625 360.207031 134.300781 C 359.515625 134.582031 358.914062 134.984375 358.40625 135.507812 C 357.898438 136.03125 357.492188 136.625 357.1875 137.285156 C 356.878906 137.945312 356.726562 138.664062 356.726562 139.433594 C 356.726562 140.449219 356.980469 141.382812 357.488281 142.222656 C 357.996094 143.066406 358.683594 143.742188 359.554688 144.242188 C 360.425781 144.746094 361.375 144.996094 362.410156 144.996094 C 363.167969 144.996094 363.882812 144.855469 364.558594 144.574219 C 365.234375 144.292969 365.839844 143.894531 366.371094 143.378906 C 366.902344 142.859375 367.316406 142.269531 367.617188 141.601562 C 367.914062 140.933594 368.058594 140.210938 368.058594 139.4375 C 368.058594 138.667969 367.910156 137.945312 367.617188 137.277344 "/></clipPath><clipPath id="5b2247219a"><path d="M 360.332031 136.277344 L 364.996094 136.277344 L 364.996094 142.3125 L 360.332031 142.3125 Z M 360.332031 136.277344 "/></clipPath><clipPath id="801730c41f"><path d="M 362.5 139.238281 L 361.386719 139.238281 L 361.386719 137.230469 L 362.546875 137.230469 C 362.933594 137.230469 363.246094 137.320312 363.488281 137.5 C 363.730469 137.675781 363.851562 137.929688 363.851562 138.25 C 363.851562 138.539062 363.722656 138.777344 363.476562 138.960938 C 363.230469 139.144531 362.902344 139.238281 362.5 139.238281 M 364.15625 139.589844 C 364.566406 139.242188 364.773438 138.785156 364.773438 138.222656 C 364.773438 137.671875 364.582031 137.226562 364.203125 136.878906 C 363.828125 136.527344 363.339844 136.359375 362.742188 136.359375 L 360.445312 136.359375 L 360.445312 142.261719 L 361.386719 142.261719 L 361.386719 140.109375 L 362.714844 140.109375 C 362.757812 140.109375 362.800781 140.105469 362.847656 140.105469 L 363.945312 142.265625 L 364.960938 142.265625 L 363.738281 139.867188 C 363.882812 139.792969 364.019531 139.703125 364.148438 139.59375 "/></clipPath></defs><g id="50d551566b"><g clip-rule="nonzero" clip-path="url(#fd13e8cbba)"><g clip-rule="nonzero" clip-path="url(#752b32ceca)"><path style=" stroke:none;fill-rule:nonzero;fill:#ffffff;fill-opacity:1;" d="M 71.273438 225.265625 L 86.820312 225.265625 L 86.820312 240.875 L 71.273438 240.875 Z M 71.273438 225.265625 "/></g></g><g clip-rule="nonzero" clip-path="url(#f6dc25506d)"><g clip-rule="nonzero" clip-path="url(#a4e6c961e0)"><path style=" stroke:none;fill-rule:nonzero;fill:#ffffff;fill-opacity:1;" d="M 89.007812 223.121094 L 163.898438 223.121094 L 163.898438 243.113281 L 89.007812 243.113281 Z M 89.007812 223.121094 "/></g></g><g clip-rule="nonzero" clip-path="url(#fb0dbc1112)"><g clip-rule="nonzero" clip-path="url(#308bcafc30)"><path style=" stroke:none;fill-rule:nonzero;fill:#ffffff;fill-opacity:1;" d="M 89.007812 223.121094 L 163.898438 223.121094 L 163.898438 243.113281 L 89.007812 243.113281 Z M 89.007812 223.121094 "/></g></g><g clip-rule="nonzero" clip-path="url(#c839b825a4)"><g clip-rule="nonzero" clip-path="url(#bc35b19d17)"><path style=" stroke:none;fill-rule:nonzero;fill:#ffffff;fill-opacity:1;" d="M 89.007812 223.121094 L 163.898438 223.121094 L 163.898438 243.113281 L 89.007812 243.113281 Z M 89.007812 223.121094 "/></g></g><g clip-rule="nonzero" clip-path="url(#f7e55199b8)"><path style=" stroke:none;fill-rule:nonzero;fill:#ffffff;fill-opacity:1;" d="M 89.007812 223.121094 L 163.898438 223.121094 L 163.898438 243.113281 L 89.007812 243.113281 Z M 89.007812 223.121094 "/></g><g clip-rule="nonzero" clip-path="url(#3ac29d30a4)"><g clip-rule="nonzero" clip-path="url(#263fb2ebc9)"><path style=" stroke:none;fill-rule:nonzero;fill:#ffffff;fill-opacity:1;" d="M 166.675781 225.265625 L 180.390625 225.265625 L 180.390625 240.910156 L 166.675781 240.910156 Z M 166.675781 225.265625 "/></g></g><g clip-rule="nonzero" clip-path="url(#94bb2dd672)"><path style=" stroke:none;fill-rule:nonzero;fill:#ffffff;fill-opacity:1;" d="M 184.5 225.265625 L 193.546875 225.265625 L 193.546875 240.886719 L 184.5 240.886719 Z M 184.5 225.265625 "/></g><g clip-rule="nonzero" clip-path="url(#ad97fa4d55)"><path style=" stroke:none;fill-rule:nonzero;fill:#ffffff;fill-opacity:1;" d="M 198.820312 225.265625 L 210.546875 225.265625 L 210.546875 240.886719 L 198.820312 240.886719 Z M 198.820312 225.265625 "/></g><g clip-rule="nonzero" clip-path="url(#1ec3240f50)"><g clip-rule="nonzero" clip-path="url(#7c7da6dfdb)"><path style=" stroke:none;fill-rule:nonzero;fill:#ffffff;fill-opacity:1;" d="M 1.464844 132.117188 L 233.089844 132.117188 L 233.089844 202.125 L 1.464844 202.125 Z M 1.464844 132.117188 "/></g></g><g clip-rule="nonzero" clip-path="url(#167a89a209)"><g clip-rule="nonzero" clip-path="url(#2e4843d214)"><path style=" stroke:none;fill-rule:nonzero;fill:#ffffff;fill-opacity:1;" d="M 1.464844 132.117188 L 233.089844 132.117188 L 233.089844 202.125 L 1.464844 202.125 Z M 1.464844 132.117188 "/></g></g><g clip-rule="nonzero" clip-path="url(#1c7c7a532e)"><g clip-rule="nonzero" clip-path="url(#8737019b23)"><path style=" stroke:none;fill-rule:nonzero;fill:#ffffff;fill-opacity:1;" d="M 1.464844 132.117188 L 233.089844 132.117188 L 233.089844 202.125 L 1.464844 202.125 Z M 1.464844 132.117188 "/></g></g><g clip-rule="nonzero" clip-path="url(#6a2f0baa39)"><path style=" stroke:none;fill-rule:nonzero;fill:#ffffff;fill-opacity:1;" d="M 221.070312 223.277344 L 305.871094 223.277344 L 305.871094 242.890625 L 221.070312 242.890625 Z M 221.070312 223.277344 "/></g><g clip-rule="nonzero" clip-path="url(#c937d9b596)"><g clip-rule="nonzero" clip-path="url(#979ff1f920)"><path style=" stroke:none;fill-rule:nonzero;fill:#ffffff;fill-opacity:1;" d="M 221.070312 223.277344 L 305.871094 223.277344 L 305.871094 242.890625 L 221.070312 242.890625 Z M 221.070312 223.277344 "/></g></g><g clip-rule="nonzero" clip-path="url(#54f307f581)"><path style=" stroke:none;fill-rule:nonzero;fill:#ffffff;fill-opacity:1;" d="M 221.070312 223.277344 L 305.871094 223.277344 L 305.871094 242.890625 L 221.070312 242.890625 Z M 221.070312 223.277344 "/></g><g clip-rule="nonzero" clip-path="url(#49314a6a3f)"><g clip-rule="nonzero" clip-path="url(#7bbb7d5821)"><path style=" stroke:none;fill-rule:nonzero;fill:#ffffff;fill-opacity:1;" d="M 221.070312 223.277344 L 305.871094 223.277344 L 305.871094 242.890625 L 221.070312 242.890625 Z M 221.070312 223.277344 "/></g></g><g clip-rule="nonzero" clip-path="url(#4c72521c3d)"><g clip-rule="nonzero" clip-path="url(#071b694139)"><path style=" stroke:none;fill-rule:nonzero;fill:#ffffff;fill-opacity:1;" d="M 221.070312 223.277344 L 305.871094 223.277344 L 305.871094 242.890625 L 221.070312 242.890625 Z M 221.070312 223.277344 "/></g></g><g clip-rule="nonzero" clip-path="url(#e62dcbb80a)"><g clip-rule="nonzero" clip-path="url(#84ee2ff1f5)"><path style=" stroke:none;fill-rule:nonzero;fill:#ffffff;fill-opacity:1;" d="M 234.671875 131.886719 L 373.5 131.886719 L 373.5 202.125 L 234.671875 202.125 Z M 234.671875 131.886719 "/></g></g><g clip-rule="nonzero" clip-path="url(#06ac303a20)"><g clip-rule="nonzero" clip-path="url(#7ea442dbf3)"><path style=" stroke:none;fill-rule:nonzero;fill:#ffffff;fill-opacity:1;" d="M 234.671875 131.886719 L 373.5 131.886719 L 373.5 202.125 L 234.671875 202.125 Z M 234.671875 131.886719 "/></g></g><g clip-rule="nonzero" clip-path="url(#5b2247219a)"><g clip-rule="nonzero" clip-path="url(#801730c41f)"><path style=" stroke:none;fill-rule:nonzero;fill:#ffffff;fill-opacity:1;" d="M 234.671875 131.886719 L 373.5 131.886719 L 373.5 202.125 L 234.671875 202.125 Z M 234.671875 131.886719 "/></g></g></g></svg>