<svg xmlns="http://www.w3.org/2000/svg" xmlns:xlink="http://www.w3.org/1999/xlink" width="500" zoomAndPan="magnify" viewBox="0 0 375 374.999991" height="500" preserveAspectRatio="xMidYMid meet" version="1.2"><defs><clipPath id="1b4be6a1bf"><path d="M 72.089844 225 L 87.589844 225 L 87.589844 240.558594 L 72.089844 240.558594 Z M 72.089844 225 "/></clipPath><clipPath id="ba5062b9d4"><path d="M 85.253906 235.191406 C 84.964844 235.921875 84.539062 236.566406 83.976562 237.109375 C 83.417969 237.652344 82.726562 238.082031 81.914062 238.382812 C 81.101562 238.6875 80.167969 238.839844 79.121094 238.839844 L 73.820312 238.839844 L 73.820312 226.6875 L 79.125 226.6875 C 80.171875 226.6875 81.105469 226.839844 81.917969 227.152344 C 82.730469 227.464844 83.417969 227.890625 83.980469 228.4375 C 84.546875 228.988281 84.96875 229.625 85.257812 230.355469 C 85.542969 231.085938 85.691406 231.890625 85.691406 232.765625 C 85.691406 233.652344 85.546875 234.460938 85.257812 235.191406 M 85.3125 227.25 C 84.585938 226.546875 83.714844 225.996094 82.695312 225.597656 C 81.675781 225.199219 80.515625 225 79.234375 225 L 72.089844 225 L 72.089844 240.527344 L 79.234375 240.527344 C 80.519531 240.527344 81.671875 240.324219 82.695312 239.925781 C 83.71875 239.527344 84.589844 238.980469 85.3125 238.285156 C 86.035156 237.589844 86.585938 236.773438 86.964844 235.835938 C 87.34375 234.894531 87.53125 233.871094 87.53125 232.765625 C 87.53125 231.671875 87.339844 230.652344 86.964844 229.714844 C 86.589844 228.773438 86.039062 227.953125 85.3125 227.25 "/></clipPath><clipPath id="4382d950f1"><path d="M 91.640625 225 L 105.367188 225 L 105.367188 240.550781 L 91.640625 240.550781 Z M 91.640625 225 "/></clipPath><clipPath id="d5a45a36ed"><path d="M 93.40625 226.6875 L 99.128906 226.6875 C 99.777344 226.6875 100.371094 226.824219 100.902344 227.085938 C 101.4375 227.351562 101.859375 227.714844 102.167969 228.171875 C 102.472656 228.628906 102.632812 229.140625 102.632812 229.703125 C 102.632812 230.296875 102.480469 230.824219 102.191406 231.289062 C 101.898438 231.753906 101.488281 232.125 100.96875 232.398438 C 100.453125 232.671875 99.859375 232.808594 99.195312 232.808594 L 93.40625 232.808594 Z M 101.933594 233.863281 C 102.710938 233.441406 103.328125 232.871094 103.785156 232.15625 C 104.242188 231.4375 104.472656 230.609375 104.472656 229.679688 C 104.472656 228.792969 104.25 228 103.804688 227.296875 C 103.359375 226.59375 102.769531 226.035156 102.027344 225.621094 C 101.285156 225.207031 100.453125 225.003906 99.523438 225.003906 L 91.675781 225.003906 L 91.675781 240.523438 L 93.40625 240.523438 L 93.40625 234.496094 L 98.875 234.496094 L 103.164062 240.523438 L 105.292969 240.523438 L 100.851562 234.285156 C 101.230469 234.183594 101.59375 234.042969 101.933594 233.859375 "/></clipPath><clipPath id="5af226fdac"><path d="M 108.234375 224.808594 L 126.148438 224.808594 L 126.148438 240.785156 L 108.234375 240.785156 Z M 108.234375 224.808594 "/></clipPath><clipPath id="4e92409384"><path d="M 123.78125 235.28125 C 123.433594 236.042969 122.941406 236.703125 122.304688 237.265625 C 121.671875 237.824219 120.917969 238.265625 120.042969 238.574219 C 119.171875 238.886719 118.21875 239.042969 117.183594 239.042969 C 116.148438 239.042969 115.195312 238.886719 114.320312 238.574219 C 113.449219 238.265625 112.699219 237.828125 112.070312 237.265625 C 111.4375 236.699219 110.957031 236.042969 110.617188 235.28125 C 110.277344 234.519531 110.105469 233.695312 110.105469 232.804688 C 110.105469 231.902344 110.277344 231.074219 110.617188 230.3125 C 110.957031 229.550781 111.441406 228.886719 112.070312 228.324219 C 112.695312 227.765625 113.445312 227.324219 114.320312 227.007812 C 115.199219 226.691406 116.148438 226.53125 117.183594 226.53125 C 118.21875 226.53125 119.171875 226.6875 120.042969 227.007812 C 120.917969 227.328125 121.671875 227.765625 122.304688 228.324219 C 122.941406 228.886719 123.433594 229.550781 123.78125 230.3125 C 124.128906 231.074219 124.304688 231.90625 124.304688 232.804688 C 124.304688 233.695312 124.128906 234.519531 123.78125 235.28125 M 123.574219 227.117188 C 122.777344 226.398438 121.835938 225.84375 120.753906 225.445312 C 119.671875 225.046875 118.484375 224.84375 117.183594 224.84375 C 115.898438 224.84375 114.710938 225.046875 113.636719 225.445312 C 112.558594 225.84375 111.617188 226.40625 110.816406 227.128906 C 110.015625 227.851562 109.402344 228.699219 108.964844 229.667969 C 108.53125 230.636719 108.3125 231.683594 108.3125 232.804688 C 108.3125 233.925781 108.527344 234.976562 108.964844 235.941406 C 109.40625 236.910156 110.019531 237.753906 110.816406 238.472656 C 111.613281 239.191406 112.554688 239.746094 113.636719 240.144531 C 114.714844 240.546875 115.898438 240.746094 117.183594 240.746094 C 118.484375 240.746094 119.671875 240.546875 120.753906 240.144531 C 121.835938 239.746094 122.773438 239.1875 123.574219 238.472656 C 124.375 237.757812 124.992188 236.914062 125.4375 235.941406 C 125.878906 234.972656 126.101562 233.929688 126.101562 232.804688 C 126.101562 231.667969 125.882812 230.613281 125.4375 229.644531 C 124.988281 228.671875 124.371094 227.832031 123.574219 227.113281 "/></clipPath><clipPath id="885d1f6ae4"><path d="M 129 224.886719 L 146.539062 224.886719 L 146.539062 240.785156 L 129 240.785156 Z M 129 224.886719 "/></clipPath><clipPath id="cbee732907"><path d="M 146.441406 233.03125 L 138.167969 233.03125 L 138.167969 234.714844 L 144.640625 234.714844 L 144.644531 234.804688 C 144.660156 235.367188 144.503906 235.90625 144.179688 236.425781 C 143.855469 236.941406 143.394531 237.394531 142.804688 237.785156 C 142.21875 238.175781 141.519531 238.484375 140.722656 238.707031 C 139.925781 238.925781 139.078125 239.039062 138.191406 239.039062 C 137.167969 239.039062 136.222656 238.894531 135.34375 238.613281 C 134.460938 238.335938 133.679688 237.925781 133 237.382812 C 132.324219 236.84375 131.792969 236.183594 131.414062 235.398438 C 131.035156 234.613281 130.851562 233.742188 130.851562 232.78125 C 130.851562 231.894531 131.03125 231.070312 131.394531 230.308594 C 131.757812 229.546875 132.273438 228.886719 132.9375 228.332031 C 133.605469 227.78125 134.378906 227.347656 135.265625 227.035156 C 136.15625 226.722656 137.109375 226.570312 138.128906 226.570312 C 138.839844 226.570312 139.546875 226.664062 140.246094 226.859375 L 142.222656 227.613281 C 142.832031 227.921875 143.378906 228.277344 143.851562 228.675781 L 144.9375 227.414062 C 144.539062 226.957031 143.984375 226.535156 143.28125 226.152344 C 142.582031 225.769531 141.789062 225.460938 140.910156 225.230469 C 140.035156 225.003906 139.09375 224.886719 138.105469 224.886719 C 136.835938 224.886719 135.640625 225.085938 134.53125 225.476562 C 133.425781 225.867188 132.457031 226.417969 131.640625 227.128906 C 130.824219 227.839844 130.175781 228.679688 129.710938 229.648438 C 129.246094 230.613281 129.011719 231.664062 129.011719 232.785156 C 129.011719 234.011719 129.246094 235.117188 129.710938 236.101562 C 130.175781 237.082031 130.828125 237.917969 131.664062 238.59375 C 132.5 239.273438 133.460938 239.804688 134.550781 240.183594 C 135.636719 240.5625 136.8125 240.746094 138.085938 240.746094 C 139.285156 240.746094 140.394531 240.589844 141.414062 240.269531 C 142.429688 239.949219 143.328125 239.503906 144.097656 238.925781 C 144.867188 238.351562 145.460938 237.652344 145.878906 236.832031 C 146.296875 236.011719 146.511719 235.109375 146.511719 234.136719 L 146.511719 233.835938 L 146.503906 233.59375 C 146.476562 233.300781 146.460938 233.160156 146.445312 233.027344 "/></clipPath><clipPath id="a50fd3a7fa"><path d="M 150.429688 225 L 162.078125 225 L 162.078125 226.6875 L 150.429688 226.6875 Z M 150.429688 226.6875 L 152.164062 226.6875 L 152.164062 231.699219 L 150.429688 231.699219 Z M 150.429688 231.699219 L 160.835938 231.699219 L 160.835938 233.386719 L 150.429688 233.386719 Z M 150.429688 233.386719 L 152.164062 233.386719 L 152.164062 238.839844 L 150.429688 238.839844 Z M 150.429688 238.839844 L 162.03125 238.839844 L 162.03125 240.523438 L 150.429688 240.523438 Z M 150.429688 238.839844 "/></clipPath><clipPath id="a5bf8d203d"><path d="M 166.824219 225 L 180.441406 225 L 180.441406 240.535156 L 166.824219 240.535156 Z M 166.824219 225 "/></clipPath><clipPath id="6170404df6"><path d="M 168.550781 226.6875 L 174.273438 226.6875 C 174.925781 226.6875 175.515625 226.820312 176.050781 227.085938 C 176.582031 227.347656 177.003906 227.710938 177.3125 228.167969 C 177.621094 228.628906 177.777344 229.136719 177.777344 229.703125 C 177.777344 230.292969 177.628906 230.820312 177.335938 231.289062 C 177.042969 231.753906 176.632812 232.125 176.117188 232.398438 C 175.601562 232.667969 175.007812 232.808594 174.339844 232.808594 L 168.550781 232.808594 Z M 177.078125 233.859375 C 177.859375 233.4375 178.472656 232.871094 178.929688 232.152344 C 179.390625 231.433594 179.617188 230.609375 179.617188 229.675781 C 179.617188 228.789062 179.398438 227.996094 178.949219 227.292969 C 178.503906 226.589844 177.917969 226.035156 177.175781 225.621094 C 176.433594 225.207031 175.609375 225 174.671875 225 L 166.824219 225 L 166.824219 240.527344 L 168.550781 240.527344 L 168.550781 234.492188 L 174.019531 234.492188 L 178.3125 240.527344 L 180.4375 240.527344 L 176 234.289062 C 176.378906 234.183594 176.742188 234.046875 177.078125 233.859375 "/></clipPath><clipPath id="c1b0334c0a"><path d="M 184.523438 225 L 193.503906 225 L 193.503906 226.710938 L 184.523438 226.710938 Z M 188.136719 226.710938 L 189.867188 226.710938 L 189.867188 238.816406 L 188.136719 238.816406 Z M 184.523438 238.816406 L 193.503906 238.816406 L 193.503906 240.527344 L 184.523438 240.527344 Z M 184.523438 238.816406 "/></clipPath><clipPath id="c7c4f8c9b3"><path d="M 198.742188 225 L 210.386719 225 L 210.386719 226.6875 L 198.742188 226.6875 Z M 198.742188 226.6875 L 200.46875 226.6875 L 200.46875 231.699219 L 198.742188 231.699219 Z M 198.742188 231.699219 L 209.144531 231.699219 L 209.144531 233.382812 L 198.742188 233.382812 Z M 198.742188 233.382812 L 200.46875 233.382812 L 200.46875 238.839844 L 198.742188 238.839844 Z M 198.742188 238.839844 L 210.339844 238.839844 L 210.339844 240.527344 L 198.742188 240.527344 Z M 198.742188 238.839844 "/></clipPath><clipPath id="94d2e6585f"><path d="M 4.671875 134.40625 L 72.832031 134.40625 L 72.832031 200.121094 L 4.671875 200.121094 Z M 4.671875 134.40625 "/></clipPath><clipPath id="f01af5b908"><path d="M 55.980469 173.539062 C 55.167969 175.539062 53.980469 177.316406 52.421875 178.878906 C 50.863281 180.441406 48.878906 181.691406 46.476562 182.625 C 44.070312 183.5625 41.242188 184.03125 37.996094 184.03125 L 23.292969 184.03125 L 23.292969 150.496094 L 38 150.496094 C 41.246094 150.496094 44.074219 150.964844 46.480469 151.898438 C 48.882812 152.835938 50.863281 154.085938 52.425781 155.644531 C 53.988281 157.203125 55.171875 158.988281 55.984375 160.984375 C 56.800781 162.980469 57.207031 165.074219 57.207031 167.261719 C 57.207031 169.445312 56.800781 171.539062 55.984375 173.535156 M 72.667969 152.585938 C 71.011719 149.46875 68.859375 146.664062 66.195312 144.171875 C 62.949219 141.144531 58.984375 138.773438 54.300781 137.050781 C 49.617188 135.332031 44.335938 134.480469 38.464844 134.480469 L 4.746094 134.480469 L 4.746094 200.046875 L 38.464844 200.046875 C 44.335938 200.046875 49.597656 199.191406 54.25 197.472656 C 58.902344 195.757812 62.871094 193.394531 66.144531 190.398438 C 68.835938 187.9375 71.007812 185.144531 72.664062 182.027344 Z M 72.667969 152.585938 "/></clipPath><clipPath id="f79c43141a"><path d="M 169.5 134.40625 L 230.867188 134.40625 L 230.867188 200.121094 L 169.5 200.121094 Z M 169.5 134.40625 "/></clipPath><clipPath id="9d5ab60d1b"><path d="M 182.988281 134.480469 L 169.515625 150.496094 L 189.945312 150.496094 L 189.945312 200.046875 L 208.492188 200.046875 L 208.492188 150.496094 L 230.703125 150.496094 L 230.703125 134.480469 Z M 182.988281 134.480469 "/></clipPath><clipPath id="1459a3462a"><path d="M 72.558594 134.40625 L 183 134.40625 L 183 200.121094 L 72.558594 200.121094 Z M 72.558594 134.40625 "/></clipPath><clipPath id="bae076a18a"><path d="M 117.03125 186.988281 L 90.570312 186.988281 L 90.570312 174.070312 L 106.046875 174.070312 L 106.046875 160.460938 L 90.570312 160.460938 L 90.570312 147.539062 L 117.03125 147.539062 L 133.617188 167.269531 Z M 155.421875 167.261719 L 155.417969 167.257812 L 182.988281 134.480469 L 161.191406 134.480469 L 144.515625 154.300781 L 127.84375 134.480469 L 72.667969 134.480469 L 72.667969 200.046875 L 127.84375 200.046875 L 144.519531 180.226562 L 161.195312 200.046875 L 182.992188 200.046875 L 155.417969 167.269531 Z M 155.421875 167.261719 "/></clipPath><clipPath id="1be2dfe134"><path d="M 222.804688 225 L 234.453125 225 L 234.453125 226.6875 L 222.804688 226.6875 Z M 222.804688 226.6875 L 224.535156 226.6875 L 224.535156 231.699219 L 222.804688 231.699219 Z M 222.804688 231.699219 L 233.210938 231.699219 L 233.210938 233.382812 L 222.804688 233.382812 Z M 222.804688 233.382812 L 224.535156 233.382812 L 224.535156 238.839844 L 222.804688 238.839844 Z M 222.804688 238.839844 L 234.40625 238.839844 L 234.40625 240.527344 L 222.804688 240.527344 Z M 222.804688 238.839844 "/></clipPath><clipPath id="a91e13c326"><path d="M 237.1875 225 L 252.855469 225 L 252.855469 240.597656 L 237.1875 240.597656 Z M 237.1875 225 "/></clipPath><clipPath id="12599221ba"><path d="M 252.617188 225 L 250.421875 225 L 245.167969 231.53125 L 239.617188 225 L 237.359375 225 L 243.792969 232.539062 L 237.222656 240.527344 L 239.375 240.527344 L 244.855469 233.785156 L 250.554688 240.527344 L 252.839844 240.527344 L 246.167969 232.703125 Z M 252.617188 225 "/></clipPath><clipPath id="85504b9872"><path d="M 254.347656 225 L 267.367188 225 L 267.367188 226.6875 L 254.347656 226.6875 Z M 259.894531 226.6875 L 261.621094 226.6875 L 261.621094 240.527344 L 259.894531 240.527344 Z M 259.894531 226.6875 "/></clipPath><clipPath id="9cd92101b0"><path d="M 270.808594 225 L 284.5 225 L 284.5 240.597656 L 270.808594 240.597656 Z M 270.808594 225 "/></clipPath><clipPath id="c3697c1440"><path d="M 272.558594 226.6875 L 278.28125 226.6875 C 278.933594 226.6875 279.523438 226.820312 280.058594 227.085938 C 280.589844 227.347656 281.011719 227.710938 281.320312 228.167969 C 281.628906 228.628906 281.785156 229.136719 281.785156 229.699219 C 281.785156 230.292969 281.636719 230.820312 281.34375 231.289062 C 281.050781 231.753906 280.640625 232.125 280.125 232.398438 C 279.605469 232.667969 279.015625 232.808594 278.347656 232.808594 L 272.558594 232.808594 Z M 281.085938 233.859375 C 281.863281 233.4375 282.480469 232.871094 282.9375 232.152344 C 283.394531 231.433594 283.625 230.609375 283.625 229.675781 C 283.625 228.789062 283.402344 227.996094 282.957031 227.292969 C 282.511719 226.589844 281.925781 226.035156 281.183594 225.621094 C 280.441406 225.207031 279.609375 225 278.679688 225 L 270.824219 225 L 270.824219 240.527344 L 272.554688 240.527344 L 272.554688 234.492188 L 278.023438 234.492188 L 282.316406 240.527344 L 284.445312 240.527344 L 280.007812 234.285156 C 280.382812 234.183594 280.746094 234.046875 281.085938 233.859375 "/></clipPath><clipPath id="01ecc9d2c0"><path d="M 286.707031 225 L 303.0625 225 L 303.0625 240.597656 L 286.707031 240.597656 Z M 286.707031 225 "/></clipPath><clipPath id="53db27af72"><path d="M 291.207031 234.71875 L 293.539062 229.613281 C 293.734375 229.199219 293.890625 228.847656 294.015625 228.558594 L 294.371094 227.75 C 294.484375 227.5 294.597656 227.226562 294.714844 226.929688 L 294.800781 226.703125 L 294.914062 226.761719 C 295.054688 227.125 295.164062 227.390625 295.28125 227.640625 L 295.648438 228.460938 C 295.78125 228.757812 295.917969 229.105469 296.070312 229.503906 L 298.449219 234.71875 Z M 301.101562 240.53125 L 303.03125 240.53125 L 295.976562 225 L 293.828125 225 L 286.730469 240.527344 L 288.550781 240.527344 L 290.4375 236.402344 L 299.21875 236.402344 Z M 301.101562 240.53125 "/></clipPath><clipPath id="33da231dc7"><path d="M 236.25 134.457031 L 370.285156 134.457031 L 370.285156 200.113281 L 236.25 200.113281 Z M 236.25 134.457031 "/></clipPath><clipPath id="b2249b8f1f"><path d="M 321.832031 176.722656 L 327.074219 165.574219 C 327.761719 164.078125 328.382812 162.6875 328.949219 161.410156 L 330.539062 157.664062 C 330.796875 157.039062 331.035156 156.414062 331.265625 155.785156 L 331.851562 157.472656 C 332.285156 158.6875 332.785156 159.957031 333.347656 161.265625 C 333.914062 162.578125 334.535156 164.011719 335.21875 165.574219 L 340.492188 176.722656 Z M 277.996094 161.175781 C 277.246094 162.363281 276.199219 163.265625 274.859375 163.890625 C 273.515625 164.515625 272.03125 164.832031 270.410156 164.832031 L 253.734375 164.832031 L 253.734375 149.371094 L 270.035156 149.371094 C 271.722656 149.371094 273.269531 149.652344 274.671875 150.214844 C 276.078125 150.78125 277.171875 151.621094 277.953125 152.746094 C 278.734375 153.871094 279.125 155.242188 279.125 156.867188 C 279.125 158.550781 278.75 159.988281 278 161.175781 M 339.53125 134.480469 L 323.417969 134.480469 L 295.960938 192.726562 L 284.070312 175.902344 C 284.550781 175.691406 285.027344 175.460938 285.492188 175.222656 C 289.238281 173.289062 292.1875 170.632812 294.34375 167.257812 C 296.5 163.882812 297.578125 160.015625 297.578125 155.640625 C 297.578125 151.269531 296.578125 147.523438 294.578125 144.402344 C 292.574219 141.28125 289.707031 138.84375 285.960938 137.097656 C 282.214844 135.347656 277.59375 134.476562 272.097656 134.476562 L 236.316406 134.476562 L 236.316406 200.046875 L 253.734375 200.046875 L 253.734375 178.125 L 264.636719 178.125 L 279.964844 200.046875 L 310.867188 200.046875 L 315.667969 189.835938 L 346.691406 189.835938 L 351.519531 200.046875 L 370.253906 200.046875 Z M 339.53125 134.480469 "/></clipPath><clipPath id="dfc65e7eaa"><path d="M 355.300781 134.183594 L 367 134.183594 L 367 145.355469 L 355.300781 145.355469 Z M 355.300781 134.183594 "/></clipPath><clipPath id="e44c83baef"><path d="M 365.183594 142.078125 C 364.753906 142.765625 364.1875 143.3125 363.492188 143.722656 C 362.792969 144.132812 362.023438 144.335938 361.171875 144.335938 C 360.308594 144.335938 359.523438 144.128906 358.820312 143.722656 C 358.117188 143.316406 357.554688 142.765625 357.128906 142.066406 C 356.703125 141.367188 356.492188 140.605469 356.492188 139.773438 C 356.492188 138.925781 356.710938 138.160156 357.140625 137.46875 C 357.570312 136.777344 358.140625 136.230469 358.84375 135.820312 C 359.550781 135.410156 360.324219 135.210938 361.171875 135.210938 C 362.023438 135.210938 362.792969 135.414062 363.492188 135.820312 C 364.1875 136.226562 364.75 136.777344 365.183594 137.46875 C 365.617188 138.160156 365.832031 138.925781 365.832031 139.773438 C 365.832031 140.621094 365.613281 141.390625 365.183594 142.078125 M 366.347656 137.625 C 366.050781 136.960938 365.644531 136.378906 365.125 135.875 C 364.601562 135.367188 364.007812 134.972656 363.335938 134.683594 C 362.664062 134.398438 361.945312 134.25 361.171875 134.25 C 360.402344 134.25 359.679688 134.394531 358.992188 134.671875 C 358.304688 134.953125 357.707031 135.351562 357.203125 135.875 C 356.699219 136.394531 356.296875 136.980469 355.992188 137.636719 C 355.6875 138.292969 355.535156 139.007812 355.535156 139.773438 C 355.535156 140.777344 355.785156 141.707031 356.292969 142.542969 C 356.796875 143.378906 357.480469 144.050781 358.34375 144.546875 C 359.207031 145.046875 360.152344 145.292969 361.175781 145.292969 C 361.929688 145.292969 362.640625 145.15625 363.3125 144.875 C 363.984375 144.59375 364.582031 144.199219 365.113281 143.6875 C 365.640625 143.175781 366.050781 142.585938 366.347656 141.921875 C 366.644531 141.261719 366.789062 140.542969 366.789062 139.777344 C 366.789062 139.011719 366.640625 138.292969 366.347656 137.628906 "/></clipPath><clipPath id="8dda2d23d0"><path d="M 359.117188 136.636719 L 363.746094 136.636719 L 363.746094 142.628906 L 359.117188 142.628906 Z M 359.117188 136.636719 "/></clipPath><clipPath id="e3cd2ab26a"><path d="M 361.269531 139.578125 L 360.164062 139.578125 L 360.164062 137.585938 L 361.316406 137.585938 C 361.699219 137.585938 362.011719 137.671875 362.25 137.851562 C 362.492188 138.027344 362.609375 138.277344 362.609375 138.597656 C 362.609375 138.882812 362.484375 139.121094 362.238281 139.304688 C 361.996094 139.484375 361.667969 139.578125 361.269531 139.578125 M 362.914062 139.925781 C 363.320312 139.582031 363.527344 139.128906 363.527344 138.570312 C 363.527344 138.023438 363.335938 137.582031 362.960938 137.234375 C 362.585938 136.886719 362.101562 136.71875 361.507812 136.71875 L 359.226562 136.71875 L 359.226562 142.578125 L 360.164062 142.578125 L 360.164062 140.445312 L 361.480469 140.445312 C 361.523438 140.445312 361.570312 140.4375 361.613281 140.4375 L 362.707031 142.582031 L 363.710938 142.582031 L 362.5 140.203125 C 362.640625 140.128906 362.777344 140.039062 362.90625 139.929688 "/></clipPath></defs><g id="6f48b31f00"><g clip-rule="nonzero" clip-path="url(#1b4be6a1bf)"><g clip-rule="nonzero" clip-path="url(#ba5062b9d4)"><path style=" stroke:none;fill-rule:nonzero;fill:#000000;fill-opacity:1;" d="M 72.089844 225 L 87.527344 225 L 87.527344 240.5 L 72.089844 240.5 Z M 72.089844 225 "/></g></g><g clip-rule="nonzero" clip-path="url(#4382d950f1)"><g clip-rule="nonzero" clip-path="url(#d5a45a36ed)"><path style=" stroke:none;fill-rule:nonzero;fill:#000000;fill-opacity:1;" d="M 89.703125 222.871094 L 164.066406 222.871094 L 164.066406 242.722656 L 89.703125 242.722656 Z M 89.703125 222.871094 "/></g></g><g clip-rule="nonzero" clip-path="url(#5af226fdac)"><g clip-rule="nonzero" clip-path="url(#4e92409384)"><path style=" stroke:none;fill-rule:nonzero;fill:#000000;fill-opacity:1;" d="M 89.703125 222.871094 L 164.066406 222.871094 L 164.066406 242.722656 L 89.703125 242.722656 Z M 89.703125 222.871094 "/></g></g><g clip-rule="nonzero" clip-path="url(#885d1f6ae4)"><g clip-rule="nonzero" clip-path="url(#cbee732907)"><path style=" stroke:none;fill-rule:nonzero;fill:#000000;fill-opacity:1;" d="M 89.703125 222.871094 L 164.066406 222.871094 L 164.066406 242.722656 L 89.703125 242.722656 Z M 89.703125 222.871094 "/></g></g><g clip-rule="nonzero" clip-path="url(#a50fd3a7fa)"><path style=" stroke:none;fill-rule:nonzero;fill:#000000;fill-opacity:1;" d="M 89.703125 222.871094 L 164.066406 222.871094 L 164.066406 242.722656 L 89.703125 242.722656 Z M 89.703125 222.871094 "/></g><g clip-rule="nonzero" clip-path="url(#a5bf8d203d)"><g clip-rule="nonzero" clip-path="url(#6170404df6)"><path style=" stroke:none;fill-rule:nonzero;fill:#000000;fill-opacity:1;" d="M 166.824219 225 L 180.441406 225 L 180.441406 240.535156 L 166.824219 240.535156 Z M 166.824219 225 "/></g></g><g clip-rule="nonzero" clip-path="url(#c1b0334c0a)"><path style=" stroke:none;fill-rule:nonzero;fill:#000000;fill-opacity:1;" d="M 184.523438 225 L 193.503906 225 L 193.503906 240.511719 L 184.523438 240.511719 Z M 184.523438 225 "/></g><g clip-rule="nonzero" clip-path="url(#c7c4f8c9b3)"><path style=" stroke:none;fill-rule:nonzero;fill:#000000;fill-opacity:1;" d="M 198.742188 225 L 210.386719 225 L 210.386719 240.511719 L 198.742188 240.511719 Z M 198.742188 225 "/></g><g clip-rule="nonzero" clip-path="url(#94d2e6585f)"><g clip-rule="nonzero" clip-path="url(#f01af5b908)"><path style=" stroke:none;fill-rule:nonzero;fill:#000000;fill-opacity:1;" d="M 2.773438 132.503906 L 232.769531 132.503906 L 232.769531 202.019531 L 2.773438 202.019531 Z M 2.773438 132.503906 "/></g></g><g clip-rule="nonzero" clip-path="url(#f79c43141a)"><g clip-rule="nonzero" clip-path="url(#9d5ab60d1b)"><path style=" stroke:none;fill-rule:nonzero;fill:#000000;fill-opacity:1;" d="M 2.773438 132.503906 L 232.769531 132.503906 L 232.769531 202.019531 L 2.773438 202.019531 Z M 2.773438 132.503906 "/></g></g><g clip-rule="nonzero" clip-path="url(#1459a3462a)"><g clip-rule="nonzero" clip-path="url(#bae076a18a)"><path style=" stroke:none;fill-rule:nonzero;fill:#000000;fill-opacity:1;" d="M 2.773438 132.503906 L 232.769531 132.503906 L 232.769531 202.019531 L 2.773438 202.019531 Z M 2.773438 132.503906 "/></g></g><g clip-rule="nonzero" clip-path="url(#1be2dfe134)"><path style=" stroke:none;fill-rule:nonzero;fill:#000000;fill-opacity:1;" d="M 220.832031 223.027344 L 305.039062 223.027344 L 305.039062 242.5 L 220.832031 242.5 Z M 220.832031 223.027344 "/></g><g clip-rule="nonzero" clip-path="url(#a91e13c326)"><g clip-rule="nonzero" clip-path="url(#12599221ba)"><path style=" stroke:none;fill-rule:nonzero;fill:#000000;fill-opacity:1;" d="M 220.832031 223.027344 L 305.039062 223.027344 L 305.039062 242.5 L 220.832031 242.5 Z M 220.832031 223.027344 "/></g></g><g clip-rule="nonzero" clip-path="url(#85504b9872)"><path style=" stroke:none;fill-rule:nonzero;fill:#000000;fill-opacity:1;" d="M 220.832031 223.027344 L 305.039062 223.027344 L 305.039062 242.5 L 220.832031 242.5 Z M 220.832031 223.027344 "/></g><g clip-rule="nonzero" clip-path="url(#9cd92101b0)"><g clip-rule="nonzero" clip-path="url(#c3697c1440)"><path style=" stroke:none;fill-rule:nonzero;fill:#000000;fill-opacity:1;" d="M 220.832031 223.027344 L 305.039062 223.027344 L 305.039062 242.5 L 220.832031 242.5 Z M 220.832031 223.027344 "/></g></g><g clip-rule="nonzero" clip-path="url(#01ecc9d2c0)"><g clip-rule="nonzero" clip-path="url(#53db27af72)"><path style=" stroke:none;fill-rule:nonzero;fill:#000000;fill-opacity:1;" d="M 220.832031 223.027344 L 305.039062 223.027344 L 305.039062 242.5 L 220.832031 242.5 Z M 220.832031 223.027344 "/></g></g><g clip-rule="nonzero" clip-path="url(#33da231dc7)"><g clip-rule="nonzero" clip-path="url(#b2249b8f1f)"><path style=" stroke:none;fill-rule:nonzero;fill:#000000;fill-opacity:1;" d="M 234.34375 132.277344 L 372.191406 132.277344 L 372.191406 202.019531 L 234.34375 202.019531 Z M 234.34375 132.277344 "/></g></g><g clip-rule="nonzero" clip-path="url(#dfc65e7eaa)"><g clip-rule="nonzero" clip-path="url(#e44c83baef)"><path style=" stroke:none;fill-rule:nonzero;fill:#000000;fill-opacity:1;" d="M 234.34375 132.277344 L 372.191406 132.277344 L 372.191406 202.019531 L 234.34375 202.019531 Z M 234.34375 132.277344 "/></g></g><g clip-rule="nonzero" clip-path="url(#8dda2d23d0)"><g clip-rule="nonzero" clip-path="url(#e3cd2ab26a)"><path style=" stroke:none;fill-rule:nonzero;fill:#000000;fill-opacity:1;" d="M 234.34375 132.277344 L 372.191406 132.277344 L 372.191406 202.019531 L 234.34375 202.019531 Z M 234.34375 132.277344 "/></g></g></g></svg>